<svg width="628" height="553" viewBox="0 0 628 553" fill="none" xmlns="http://www.w3.org/2000/svg">
<rect y="154" width="500" height="345" rx="20" fill="white"/>
<path d="M43.0943 454.144C42.3503 454.144 41.7063 453.96 41.1623 453.592C40.6263 453.224 40.2143 452.716 39.9263 452.068C39.6383 451.412 39.4943 450.656 39.4943 449.8C39.4943 448.944 39.6383 448.192 39.9263 447.544C40.2143 446.888 40.6263 446.376 41.1623 446.008C41.6983 445.64 42.3423 445.456 43.0943 445.456C43.8463 445.456 44.4903 445.64 45.0263 446.008C45.5623 446.376 45.9743 446.888 46.2623 447.544C46.5503 448.192 46.6943 448.944 46.6943 449.8C46.6943 450.656 46.5503 451.412 46.2623 452.068C45.9743 452.716 45.5623 453.224 45.0263 453.592C44.4903 453.96 43.8463 454.144 43.0943 454.144ZM43.0943 452.692C43.4783 452.692 43.8183 452.576 44.1143 452.344C44.4103 452.104 44.6383 451.768 44.7983 451.336C44.9663 450.904 45.0503 450.392 45.0503 449.8C45.0503 449.2 44.9663 448.688 44.7983 448.264C44.6383 447.832 44.4103 447.5 44.1143 447.268C43.8183 447.036 43.4783 446.92 43.0943 446.92C42.7103 446.92 42.3703 447.036 42.0743 447.268C41.7783 447.5 41.5463 447.832 41.3783 448.264C41.2183 448.688 41.1383 449.2 41.1383 449.8C41.1383 450.392 41.2183 450.904 41.3783 451.336C41.5463 451.768 41.7783 452.104 42.0743 452.344C42.3703 452.576 42.7103 452.692 43.0943 452.692ZM51.1863 454.144C50.4423 454.144 49.7983 453.96 49.2543 453.592C48.7183 453.224 48.3063 452.716 48.0183 452.068C47.7303 451.412 47.5863 450.656 47.5863 449.8C47.5863 448.944 47.7303 448.192 48.0183 447.544C48.3063 446.888 48.7183 446.376 49.2543 446.008C49.7903 445.64 50.4343 445.456 51.1863 445.456C51.9383 445.456 52.5823 445.64 53.1183 446.008C53.6543 446.376 54.0663 446.888 54.3543 447.544C54.6423 448.192 54.7863 448.944 54.7863 449.8C54.7863 450.656 54.6423 451.412 54.3543 452.068C54.0663 452.716 53.6543 453.224 53.1183 453.592C52.5823 453.96 51.9383 454.144 51.1863 454.144ZM51.1863 452.692C51.5703 452.692 51.9103 452.576 52.2063 452.344C52.5023 452.104 52.7303 451.768 52.8903 451.336C53.0583 450.904 53.1423 450.392 53.1423 449.8C53.1423 449.2 53.0583 448.688 52.8903 448.264C52.7303 447.832 52.5023 447.5 52.2063 447.268C51.9103 447.036 51.5703 446.92 51.1863 446.92C50.8023 446.92 50.4623 447.036 50.1663 447.268C49.8703 447.5 49.6383 447.832 49.4703 448.264C49.3103 448.688 49.2303 449.2 49.2303 449.8C49.2303 450.392 49.3103 450.904 49.4703 451.336C49.6383 451.768 49.8703 452.104 50.1663 452.344C50.4623 452.576 50.8023 452.692 51.1863 452.692Z" fill="#B0BBD5"/>
<path d="M111.192 454.144C110.448 454.144 109.804 453.96 109.26 453.592C108.724 453.224 108.312 452.716 108.024 452.068C107.736 451.412 107.592 450.656 107.592 449.8C107.592 448.944 107.736 448.192 108.024 447.544C108.312 446.888 108.724 446.376 109.26 446.008C109.796 445.64 110.44 445.456 111.192 445.456C111.944 445.456 112.588 445.64 113.124 446.008C113.66 446.376 114.072 446.888 114.36 447.544C114.648 448.192 114.792 448.944 114.792 449.8C114.792 450.656 114.648 451.412 114.36 452.068C114.072 452.716 113.66 453.224 113.124 453.592C112.588 453.96 111.944 454.144 111.192 454.144ZM111.192 452.692C111.576 452.692 111.916 452.576 112.212 452.344C112.508 452.104 112.736 451.768 112.896 451.336C113.064 450.904 113.148 450.392 113.148 449.8C113.148 449.2 113.064 448.688 112.896 448.264C112.736 447.832 112.508 447.5 112.212 447.268C111.916 447.036 111.576 446.92 111.192 446.92C110.808 446.92 110.468 447.036 110.172 447.268C109.876 447.5 109.644 447.832 109.476 448.264C109.316 448.688 109.236 449.2 109.236 449.8C109.236 450.392 109.316 450.904 109.476 451.336C109.644 451.768 109.876 452.104 110.172 452.344C110.468 452.576 110.808 452.692 111.192 452.692ZM119.813 454V452.476H115.685V451.192L119.597 445.6H121.433V451.072H122.525V452.476H121.433V454H119.813ZM117.413 451.072H119.921V447.388L117.413 451.072Z" fill="#B0BBD5"/>
<path d="M179.178 454.144C178.434 454.144 177.79 453.96 177.246 453.592C176.71 453.224 176.298 452.716 176.01 452.068C175.722 451.412 175.578 450.656 175.578 449.8C175.578 448.944 175.722 448.192 176.01 447.544C176.298 446.888 176.71 446.376 177.246 446.008C177.782 445.64 178.426 445.456 179.178 445.456C179.93 445.456 180.574 445.64 181.11 446.008C181.646 446.376 182.058 446.888 182.346 447.544C182.634 448.192 182.778 448.944 182.778 449.8C182.778 450.656 182.634 451.412 182.346 452.068C182.058 452.716 181.646 453.224 181.11 453.592C180.574 453.96 179.93 454.144 179.178 454.144ZM179.178 452.692C179.562 452.692 179.902 452.576 180.198 452.344C180.494 452.104 180.722 451.768 180.882 451.336C181.05 450.904 181.134 450.392 181.134 449.8C181.134 449.2 181.05 448.688 180.882 448.264C180.722 447.832 180.494 447.5 180.198 447.268C179.902 447.036 179.562 446.92 179.178 446.92C178.794 446.92 178.454 447.036 178.158 447.268C177.862 447.5 177.63 447.832 177.462 448.264C177.302 448.688 177.222 449.2 177.222 449.8C177.222 450.392 177.302 450.904 177.462 451.336C177.63 451.768 177.862 452.104 178.158 452.344C178.454 452.576 178.794 452.692 179.178 452.692ZM186.898 454.144C186.338 454.144 185.826 454.04 185.362 453.832C184.898 453.624 184.53 453.332 184.258 452.956C183.986 452.58 183.85 452.144 183.85 451.648C183.85 451.304 183.906 450.992 184.018 450.712C184.13 450.432 184.29 450.184 184.498 449.968C184.706 449.752 184.95 449.588 185.23 449.476C184.878 449.308 184.594 449.068 184.378 448.756C184.162 448.444 184.054 448.092 184.054 447.7C184.054 447.308 184.162 446.94 184.378 446.596C184.594 446.252 184.91 445.976 185.326 445.768C185.75 445.56 186.274 445.456 186.898 445.456C187.53 445.456 188.054 445.56 188.47 445.768C188.894 445.976 189.21 446.252 189.418 446.596C189.634 446.94 189.742 447.308 189.742 447.7C189.742 448.084 189.634 448.436 189.418 448.756C189.202 449.068 188.918 449.308 188.566 449.476C188.854 449.596 189.102 449.764 189.31 449.98C189.518 450.188 189.678 450.432 189.79 450.712C189.902 450.992 189.958 451.304 189.958 451.648C189.958 452.144 189.822 452.58 189.55 452.956C189.278 453.332 188.91 453.624 188.446 453.832C187.99 454.04 187.474 454.144 186.898 454.144ZM186.898 452.788C187.386 452.788 187.75 452.668 187.99 452.428C188.238 452.188 188.362 451.884 188.362 451.516C188.362 451.108 188.234 450.788 187.978 450.556C187.722 450.316 187.362 450.196 186.898 450.196C186.442 450.196 186.082 450.316 185.818 450.556C185.554 450.788 185.422 451.108 185.422 451.516C185.422 451.884 185.546 452.188 185.794 452.428C186.05 452.668 186.418 452.788 186.898 452.788ZM186.898 449.008C187.298 449.008 187.606 448.904 187.822 448.696C188.046 448.488 188.158 448.22 188.158 447.892C188.158 447.54 188.046 447.268 187.822 447.076C187.606 446.876 187.298 446.776 186.898 446.776C186.506 446.776 186.202 446.876 185.986 447.076C185.77 447.268 185.662 447.544 185.662 447.904C185.662 448.224 185.77 448.488 185.986 448.696C186.202 448.904 186.506 449.008 186.898 449.008Z" fill="#B0BBD5"/>
<path d="M246.358 454V447.46L244.75 447.952V446.608L247.042 445.6H248.038V454H246.358ZM249.261 454V452.812C249.781 452.404 250.285 451.996 250.773 451.588C251.261 451.18 251.697 450.776 252.081 450.376C252.473 449.968 252.781 449.572 253.005 449.188C253.237 448.804 253.353 448.432 253.353 448.072C253.353 447.848 253.309 447.644 253.221 447.46C253.141 447.268 253.013 447.116 252.837 447.004C252.661 446.884 252.429 446.824 252.141 446.824C251.861 446.824 251.621 446.888 251.421 447.016C251.229 447.144 251.081 447.316 250.977 447.532C250.881 447.74 250.833 447.976 250.833 448.24H249.273C249.289 447.624 249.425 447.108 249.681 446.692C249.945 446.276 250.293 445.968 250.725 445.768C251.165 445.56 251.653 445.456 252.189 445.456C252.781 445.456 253.281 445.568 253.689 445.792C254.105 446.008 254.421 446.304 254.637 446.68C254.861 447.056 254.973 447.488 254.973 447.976C254.973 448.344 254.901 448.704 254.757 449.056C254.621 449.408 254.433 449.752 254.193 450.088C253.961 450.416 253.697 450.732 253.401 451.036C253.105 451.34 252.793 451.632 252.465 451.912C252.137 452.184 251.821 452.44 251.517 452.68H255.165V454H249.261Z" fill="#B0BBD5"/>
<path d="M313.799 454V447.46L312.191 447.952V446.608L314.483 445.6H315.479V454H313.799ZM320.77 454V452.476H316.642V451.192L320.554 445.6H322.39V451.072H323.482V452.476H322.39V454H320.77ZM318.37 451.072H320.878V447.388L318.37 451.072Z" fill="#B0BBD5"/>
<path d="M381.058 454V447.46L379.45 447.952V446.608L381.742 445.6H382.738V454H381.058ZM387.334 454.144C386.702 454.144 386.17 454.028 385.738 453.796C385.306 453.564 384.958 453.256 384.694 452.872C384.438 452.48 384.25 452.044 384.13 451.564C384.018 451.076 383.962 450.58 383.962 450.076C383.962 449.132 384.09 448.316 384.346 447.628C384.61 446.94 384.99 446.408 385.486 446.032C385.99 445.648 386.594 445.456 387.298 445.456C387.882 445.456 388.378 445.568 388.786 445.792C389.194 446.016 389.51 446.312 389.734 446.68C389.958 447.04 390.09 447.428 390.13 447.844H388.63C388.558 447.508 388.406 447.248 388.174 447.064C387.942 446.88 387.642 446.788 387.274 446.788C386.93 446.788 386.63 446.896 386.374 447.112C386.118 447.32 385.922 447.632 385.786 448.048C385.65 448.464 385.57 448.984 385.546 449.608C385.546 449.624 385.546 449.64 385.546 449.656C385.546 449.672 385.546 449.688 385.546 449.704C385.666 449.48 385.83 449.284 386.038 449.116C386.246 448.948 386.486 448.816 386.758 448.72C387.03 448.616 387.314 448.564 387.61 448.564C388.082 448.564 388.514 448.676 388.906 448.9C389.306 449.124 389.626 449.44 389.866 449.848C390.106 450.256 390.226 450.74 390.226 451.3C390.226 451.804 390.102 452.276 389.854 452.716C389.614 453.148 389.278 453.496 388.846 453.76C388.414 454.016 387.91 454.144 387.334 454.144ZM387.238 452.752C387.51 452.752 387.754 452.692 387.97 452.572C388.194 452.452 388.366 452.288 388.486 452.08C388.614 451.864 388.678 451.62 388.678 451.348C388.678 451.06 388.614 450.812 388.486 450.604C388.366 450.396 388.194 450.232 387.97 450.112C387.754 449.992 387.506 449.932 387.226 449.932C386.946 449.932 386.694 449.992 386.47 450.112C386.254 450.232 386.082 450.396 385.954 450.604C385.826 450.812 385.762 451.056 385.762 451.336C385.762 451.616 385.826 451.864 385.954 452.08C386.082 452.288 386.258 452.452 386.482 452.572C386.706 452.692 386.958 452.752 387.238 452.752Z" fill="#B0BBD5"/>
<path d="M448.215 454V447.46L446.607 447.952V446.608L448.899 445.6H449.895V454H448.215ZM454.286 454.144C453.726 454.144 453.214 454.04 452.75 453.832C452.286 453.624 451.918 453.332 451.646 452.956C451.374 452.58 451.238 452.144 451.238 451.648C451.238 451.304 451.294 450.992 451.406 450.712C451.518 450.432 451.678 450.184 451.886 449.968C452.094 449.752 452.338 449.588 452.618 449.476C452.266 449.308 451.982 449.068 451.766 448.756C451.55 448.444 451.442 448.092 451.442 447.7C451.442 447.308 451.55 446.94 451.766 446.596C451.982 446.252 452.298 445.976 452.714 445.768C453.138 445.56 453.662 445.456 454.286 445.456C454.918 445.456 455.442 445.56 455.858 445.768C456.282 445.976 456.598 446.252 456.806 446.596C457.022 446.94 457.13 447.308 457.13 447.7C457.13 448.084 457.022 448.436 456.806 448.756C456.59 449.068 456.306 449.308 455.954 449.476C456.242 449.596 456.49 449.764 456.698 449.98C456.906 450.188 457.066 450.432 457.178 450.712C457.29 450.992 457.346 451.304 457.346 451.648C457.346 452.144 457.21 452.58 456.938 452.956C456.666 453.332 456.298 453.624 455.834 453.832C455.378 454.04 454.862 454.144 454.286 454.144ZM454.286 452.788C454.774 452.788 455.138 452.668 455.378 452.428C455.626 452.188 455.75 451.884 455.75 451.516C455.75 451.108 455.622 450.788 455.366 450.556C455.11 450.316 454.75 450.196 454.286 450.196C453.83 450.196 453.47 450.316 453.206 450.556C452.942 450.788 452.81 451.108 452.81 451.516C452.81 451.884 452.934 452.188 453.182 452.428C453.438 452.668 453.806 452.788 454.286 452.788ZM454.286 449.008C454.686 449.008 454.994 448.904 455.21 448.696C455.434 448.488 455.546 448.22 455.546 447.892C455.546 447.54 455.434 447.268 455.21 447.076C454.994 446.876 454.686 446.776 454.286 446.776C453.894 446.776 453.59 446.876 453.374 447.076C453.158 447.268 453.05 447.544 453.05 447.904C453.05 448.224 453.158 448.488 453.374 448.696C453.59 448.904 453.894 449.008 454.286 449.008Z" fill="#B0BBD5"/>
<path d="M437.026 195.168V193.884H439.282V191.808H440.59V193.884H442.834V195.168H440.59V197.244H439.282V195.168H437.026ZM443.886 198V196.884C444.398 196.46 444.894 196.04 445.374 195.624C445.862 195.208 446.294 194.796 446.67 194.388C447.054 193.98 447.358 193.584 447.582 193.2C447.814 192.808 447.93 192.428 447.93 192.06C447.93 191.716 447.834 191.412 447.642 191.148C447.458 190.884 447.15 190.752 446.718 190.752C446.278 190.752 445.946 190.896 445.722 191.184C445.498 191.472 445.386 191.82 445.386 192.228H443.898C443.914 191.612 444.05 191.1 444.306 190.692C444.562 190.276 444.902 189.968 445.326 189.768C445.75 189.56 446.226 189.456 446.754 189.456C447.61 189.456 448.274 189.692 448.746 190.164C449.226 190.628 449.466 191.232 449.466 191.976C449.466 192.44 449.358 192.892 449.142 193.332C448.934 193.772 448.658 194.196 448.314 194.604C447.97 195.012 447.598 195.396 447.198 195.756C446.798 196.108 446.41 196.436 446.034 196.74H449.67V198H443.886ZM451.33 198.084C451.05 198.084 450.818 197.996 450.634 197.82C450.458 197.644 450.37 197.432 450.37 197.184C450.37 196.928 450.458 196.712 450.634 196.536C450.818 196.36 451.05 196.272 451.33 196.272C451.61 196.272 451.838 196.36 452.014 196.536C452.198 196.712 452.29 196.928 452.29 197.184C452.29 197.432 452.198 197.644 452.014 197.82C451.838 197.996 451.61 198.084 451.33 198.084ZM457.188 198V196.44H453.048V195.216L456.984 189.6H458.724V195.108H459.828V196.44H458.724V198H457.188ZM454.692 195.108H457.284V191.292L454.692 195.108ZM463.808 198.144C463.192 198.144 462.66 198.036 462.212 197.82C461.772 197.604 461.424 197.308 461.168 196.932C460.92 196.548 460.776 196.116 460.736 195.636H462.236C462.308 195.98 462.484 196.268 462.764 196.5C463.044 196.724 463.392 196.836 463.808 196.836C464.256 196.836 464.62 196.672 464.9 196.344C465.188 196.016 465.332 195.608 465.332 195.12C465.332 194.616 465.188 194.216 464.9 193.92C464.62 193.624 464.264 193.476 463.832 193.476C463.472 193.476 463.16 193.564 462.896 193.74C462.632 193.916 462.444 194.136 462.332 194.4H460.856L461.576 189.6H466.232V190.944H462.728L462.344 192.888C462.52 192.696 462.76 192.54 463.064 192.42C463.368 192.292 463.708 192.228 464.084 192.228C464.684 192.228 465.184 192.364 465.584 192.636C465.984 192.9 466.288 193.252 466.496 193.692C466.704 194.124 466.808 194.596 466.808 195.108C466.808 195.692 466.68 196.212 466.424 196.668C466.176 197.124 465.824 197.484 465.368 197.748C464.92 198.012 464.4 198.144 463.808 198.144ZM469.725 193.728C469.341 193.728 468.993 193.644 468.681 193.476C468.369 193.3 468.121 193.052 467.937 192.732C467.753 192.412 467.661 192.032 467.661 191.592C467.661 191.152 467.753 190.772 467.937 190.452C468.121 190.132 468.369 189.888 468.681 189.72C468.993 189.544 469.345 189.456 469.737 189.456C470.121 189.456 470.465 189.544 470.769 189.72C471.081 189.888 471.329 190.132 471.513 190.452C471.697 190.772 471.789 191.152 471.789 191.592C471.789 192.032 471.697 192.412 471.513 192.732C471.329 193.052 471.081 193.3 470.769 193.476C470.457 193.644 470.109 193.728 469.725 193.728ZM469.269 198L474.009 189.6H475.509L470.769 198H469.269ZM469.725 192.66C469.957 192.66 470.157 192.572 470.325 192.396C470.493 192.212 470.577 191.944 470.577 191.592C470.577 191.24 470.493 190.972 470.325 190.788C470.165 190.604 469.965 190.512 469.725 190.512C469.485 190.512 469.281 190.604 469.113 190.788C468.953 190.972 468.873 191.24 468.873 191.592C468.873 191.944 468.953 192.212 469.113 192.396C469.281 192.572 469.485 192.66 469.725 192.66ZM475.101 198.144C474.717 198.144 474.369 198.06 474.057 197.892C473.745 197.716 473.497 197.468 473.313 197.148C473.129 196.828 473.037 196.448 473.037 196.008C473.037 195.568 473.129 195.192 473.313 194.88C473.497 194.56 473.745 194.316 474.057 194.148C474.369 193.972 474.721 193.884 475.113 193.884C475.497 193.884 475.841 193.972 476.145 194.148C476.457 194.316 476.705 194.56 476.889 194.88C477.073 195.192 477.165 195.568 477.165 196.008C477.165 196.448 477.073 196.828 476.889 197.148C476.705 197.468 476.457 197.716 476.145 197.892C475.841 198.06 475.493 198.144 475.101 198.144ZM475.101 197.076C475.341 197.076 475.541 196.988 475.701 196.812C475.869 196.628 475.953 196.36 475.953 196.008C475.953 195.656 475.869 195.388 475.701 195.204C475.541 195.02 475.341 194.928 475.101 194.928C474.861 194.928 474.657 195.02 474.489 195.204C474.329 195.388 474.249 195.656 474.249 196.008C474.249 196.36 474.329 196.628 474.489 196.812C474.657 196.988 474.861 197.076 475.101 197.076Z" fill="#05CD99"/>
<g clip-path="url(#clip0_3064_4289)">
<path d="M423.25 195.5L427 191.75L430.75 195.5H423.25Z" fill="#05CD99"/>
</g>
<path d="M444.73 424L444.73 392.793C444.73 387.824 448.759 383.796 453.728 383.796V383.796C458.697 383.796 462.725 387.824 462.725 392.793L462.725 424L444.73 424Z" fill="url(#paint0_linear_3064_4289)"/>
<path d="M376.607 424L376.607 279.997C376.607 275.028 380.636 271 385.605 271V271C390.574 271 394.602 275.028 394.602 279.997L394.602 424L376.607 424Z" fill="url(#paint1_linear_3064_4289)"/>
<path d="M309.77 424L309.77 316.851C309.77 311.882 313.798 307.854 318.767 307.854V307.854C323.736 307.854 327.764 311.882 327.764 316.851L327.764 424L309.77 424Z" fill="url(#paint2_linear_3064_4289)"/>
<path d="M241.645 424L241.645 345.888C241.645 340.919 245.673 336.891 250.642 336.891V336.891C255.611 336.891 259.639 340.919 259.639 345.888L259.639 424L241.645 424Z" fill="url(#paint3_linear_3064_4289)"/>
<path d="M173.521 424L173.521 294.516C173.521 289.547 177.55 285.518 182.519 285.518V285.518C187.488 285.518 191.516 289.547 191.516 294.516L191.516 424L173.521 424Z" fill="url(#paint4_linear_3064_4289)"/>
<path d="M106.684 424L106.684 362.64C106.684 357.671 110.712 353.642 115.681 353.642V353.642C120.65 353.642 124.678 357.671 124.678 362.64L124.678 424L106.684 424Z" fill="url(#paint5_linear_3064_4289)"/>
<path d="M38.5605 424L38.5605 333.603C38.5605 328.634 42.5888 324.606 47.558 324.606V324.606C52.5271 324.606 56.5554 328.634 56.5554 333.603L56.5554 424L38.5605 424Z" fill="url(#paint6_linear_3064_4289)"/>
<path d="M27.7275 186.047V196H26.0117V186.047H27.7275ZM31.7881 190.401V191.762H27.29V190.401H31.7881ZM32.3555 186.047V187.414H27.29V186.047H32.3555ZM36.3889 196.137C35.8421 196.137 35.3476 196.048 34.9055 195.87C34.468 195.688 34.0943 195.435 33.7845 195.111C33.4791 194.788 33.2444 194.407 33.0804 193.97C32.9163 193.532 32.8343 193.061 32.8343 192.555V192.281C32.8343 191.702 32.9186 191.178 33.0872 190.709C33.2558 190.24 33.4905 189.839 33.7913 189.506C34.0921 189.169 34.4475 188.911 34.8577 188.733C35.2679 188.556 35.7122 188.467 36.1907 188.467C36.7193 188.467 37.1819 188.556 37.5784 188.733C37.9749 188.911 38.303 189.162 38.5628 189.485C38.8271 189.804 39.0231 190.185 39.1507 190.627C39.2828 191.069 39.3489 191.557 39.3489 192.09V192.794H33.6341V191.611H37.722V191.481C37.7128 191.185 37.6536 190.907 37.5442 190.647C37.4394 190.388 37.2776 190.178 37.0589 190.019C36.8401 189.859 36.5485 189.779 36.1839 189.779C35.9104 189.779 35.6666 189.839 35.4524 189.957C35.2428 190.071 35.0673 190.237 34.9261 190.456C34.7848 190.675 34.6754 190.939 34.5979 191.249C34.525 191.554 34.4886 191.898 34.4886 192.281V192.555C34.4886 192.878 34.5318 193.179 34.6184 193.457C34.7096 193.73 34.8417 193.97 35.0149 194.175C35.1881 194.38 35.3977 194.542 35.6438 194.66C35.8899 194.774 36.1702 194.831 36.4846 194.831C36.8811 194.831 37.2343 194.751 37.5442 194.592C37.8541 194.432 38.123 194.207 38.3509 193.915L39.219 194.756C39.0595 194.988 38.8522 195.212 38.597 195.426C38.3417 195.635 38.0296 195.806 37.6604 195.938C37.2958 196.071 36.872 196.137 36.3889 196.137ZM43.6148 196.137C43.0679 196.137 42.5735 196.048 42.1314 195.87C41.6939 195.688 41.3202 195.435 41.0103 195.111C40.705 194.788 40.4703 194.407 40.3062 193.97C40.1421 193.532 40.0601 193.061 40.0601 192.555V192.281C40.0601 191.702 40.1444 191.178 40.313 190.709C40.4817 190.24 40.7164 189.839 41.0171 189.506C41.3179 189.169 41.6734 188.911 42.0836 188.733C42.4937 188.556 42.938 188.467 43.4166 188.467C43.9452 188.467 44.4078 188.556 44.8043 188.733C45.2007 188.911 45.5289 189.162 45.7886 189.485C46.053 189.804 46.2489 190.185 46.3765 190.627C46.5087 191.069 46.5748 191.557 46.5748 192.09V192.794H40.8599V191.611H44.9478V191.481C44.9387 191.185 44.8795 190.907 44.7701 190.647C44.6653 190.388 44.5035 190.178 44.2847 190.019C44.066 189.859 43.7743 189.779 43.4097 189.779C43.1363 189.779 42.8925 189.839 42.6783 189.957C42.4686 190.071 42.2932 190.237 42.1519 190.456C42.0106 190.675 41.9013 190.939 41.8238 191.249C41.7509 191.554 41.7144 191.898 41.7144 192.281V192.555C41.7144 192.878 41.7577 193.179 41.8443 193.457C41.9354 193.73 42.0676 193.97 42.2408 194.175C42.414 194.38 42.6236 194.542 42.8697 194.66C43.1158 194.774 43.3961 194.831 43.7105 194.831C44.107 194.831 44.4602 194.751 44.7701 194.592C45.08 194.432 45.3489 194.207 45.5767 193.915L46.4449 194.756C46.2854 194.988 46.078 195.212 45.8228 195.426C45.5676 195.635 45.2554 195.806 44.8863 195.938C44.5217 196.071 44.0979 196.137 43.6148 196.137ZM56.8292 192.76H58.5382C58.4835 193.411 58.3012 193.993 57.9913 194.503C57.6814 195.009 57.2462 195.408 56.6857 195.699C56.1251 195.991 55.4438 196.137 54.6417 196.137C54.0265 196.137 53.4728 196.027 52.9806 195.809C52.4884 195.585 52.0668 195.271 51.7159 194.865C51.365 194.455 51.0961 193.961 50.9093 193.382C50.727 192.803 50.6359 192.156 50.6359 191.44V190.613C50.6359 189.898 50.7293 189.251 50.9161 188.672C51.1075 188.093 51.381 187.599 51.7364 187.188C52.0919 186.774 52.518 186.457 53.0148 186.238C53.5161 186.02 54.0789 185.91 54.7032 185.91C55.4962 185.91 56.1661 186.056 56.713 186.348C57.2599 186.639 57.6837 187.043 57.9845 187.558C58.2898 188.073 58.4767 188.663 58.545 189.328H56.8361C56.7905 188.9 56.6902 188.533 56.5353 188.228C56.3849 187.922 56.1616 187.69 55.8654 187.53C55.5691 187.366 55.1818 187.284 54.7032 187.284C54.3113 187.284 53.9695 187.357 53.6779 187.503C53.3862 187.649 53.1424 187.863 52.9464 188.146C52.7504 188.428 52.6023 188.777 52.5021 189.191C52.4064 189.602 52.3585 190.071 52.3585 190.6V191.44C52.3585 191.942 52.4018 192.397 52.4884 192.808C52.5795 193.213 52.7163 193.562 52.8986 193.854C53.0854 194.145 53.3224 194.371 53.6095 194.53C53.8966 194.69 54.2407 194.77 54.6417 194.77C55.1293 194.77 55.5236 194.692 55.8243 194.537C56.1297 194.382 56.3598 194.157 56.5148 193.86C56.6743 193.56 56.7791 193.193 56.8292 192.76ZM59.3383 192.384V192.227C59.3383 191.693 59.4158 191.199 59.5707 190.743C59.7256 190.283 59.949 189.884 60.2406 189.547C60.5368 189.205 60.8969 188.941 61.3207 188.754C61.7491 188.562 62.2322 188.467 62.7699 188.467C63.3122 188.467 63.7953 188.562 64.2191 188.754C64.6475 188.941 65.0098 189.205 65.3061 189.547C65.6023 189.884 65.8279 190.283 65.9828 190.743C66.1378 191.199 66.2152 191.693 66.2152 192.227V192.384C66.2152 192.917 66.1378 193.411 65.9828 193.867C65.8279 194.323 65.6023 194.722 65.3061 195.063C65.0098 195.401 64.6498 195.665 64.226 195.856C63.8021 196.043 63.3214 196.137 62.7836 196.137C62.2413 196.137 61.7559 196.043 61.3275 195.856C60.9037 195.665 60.5437 195.401 60.2475 195.063C59.9512 194.722 59.7256 194.323 59.5707 193.867C59.4158 193.411 59.3383 192.917 59.3383 192.384ZM60.9857 192.227V192.384C60.9857 192.716 61.0199 193.031 61.0883 193.327C61.1566 193.623 61.2637 193.883 61.4096 194.106C61.5554 194.33 61.7423 194.505 61.9701 194.633C62.198 194.76 62.4691 194.824 62.7836 194.824C63.0889 194.824 63.3533 194.76 63.5766 194.633C63.8044 194.505 63.9913 194.33 64.1371 194.106C64.2829 193.883 64.39 193.623 64.4584 193.327C64.5313 193.031 64.5678 192.716 64.5678 192.384V192.227C64.5678 191.898 64.5313 191.589 64.4584 191.297C64.39 191.001 64.2807 190.739 64.1303 190.511C63.9844 190.283 63.7976 190.105 63.5697 189.978C63.3464 189.845 63.0798 189.779 62.7699 189.779C62.46 189.779 62.1911 189.845 61.9633 189.978C61.74 190.105 61.5554 190.283 61.4096 190.511C61.2637 190.739 61.1566 191.001 61.0883 191.297C61.0199 191.589 60.9857 191.898 60.9857 192.227ZM69.0798 185.5V196H67.4255V185.5H69.0798ZM72.3681 185.5V196H70.7138V185.5H72.3681ZM77.1536 196.137C76.6067 196.137 76.1122 196.048 75.6702 195.87C75.2327 195.688 74.859 195.435 74.5491 195.111C74.2437 194.788 74.009 194.407 73.845 193.97C73.6809 193.532 73.5989 193.061 73.5989 192.555V192.281C73.5989 191.702 73.6832 191.178 73.8518 190.709C74.0204 190.24 74.2551 189.839 74.5559 189.506C74.8567 189.169 75.2121 188.911 75.6223 188.733C76.0325 188.556 76.4768 188.467 76.9553 188.467C77.484 188.467 77.9465 188.556 78.343 188.733C78.7395 188.911 79.0676 189.162 79.3274 189.485C79.5917 189.804 79.7877 190.185 79.9153 190.627C80.0474 191.069 80.1135 191.557 80.1135 192.09V192.794H74.3987V191.611H78.4866V191.481C78.4774 191.185 78.4182 190.907 78.3088 190.647C78.204 190.388 78.0422 190.178 77.8235 190.019C77.6047 189.859 77.3131 189.779 76.9485 189.779C76.675 189.779 76.4312 189.839 76.217 189.957C76.0074 190.071 75.8319 190.237 75.6907 190.456C75.5494 190.675 75.44 190.939 75.3625 191.249C75.2896 191.554 75.2532 191.898 75.2532 192.281V192.555C75.2532 192.878 75.2965 193.179 75.383 193.457C75.4742 193.73 75.6064 193.97 75.7795 194.175C75.9527 194.38 76.1623 194.542 76.4084 194.66C76.6545 194.774 76.9348 194.831 77.2493 194.831C77.6457 194.831 77.9989 194.751 78.3088 194.592C78.6187 194.432 78.8876 194.207 79.1155 193.915L79.9836 194.756C79.8241 194.988 79.6168 195.212 79.3616 195.426C79.1064 195.635 78.7942 195.806 78.425 195.938C78.0605 196.071 77.6366 196.137 77.1536 196.137ZM84.1402 194.824C84.409 194.824 84.6506 194.772 84.8648 194.667C85.0835 194.558 85.259 194.407 85.3911 194.216C85.5279 194.024 85.603 193.803 85.6167 193.553H87.1685C87.1594 194.031 87.0181 194.466 86.7446 194.858C86.4712 195.25 86.1089 195.562 85.6577 195.795C85.2066 196.023 84.7075 196.137 84.1607 196.137C83.5956 196.137 83.1034 196.041 82.6841 195.85C82.2648 195.654 81.9162 195.385 81.6382 195.043C81.3602 194.701 81.1506 194.307 81.0093 193.86C80.8726 193.414 80.8042 192.935 80.8042 192.425V192.186C80.8042 191.675 80.8726 191.197 81.0093 190.75C81.1506 190.299 81.3602 189.902 81.6382 189.561C81.9162 189.219 82.2648 188.952 82.6841 188.761C83.1034 188.565 83.5933 188.467 84.1538 188.467C84.7463 188.467 85.2658 188.585 85.7124 188.822C86.159 189.055 86.5099 189.381 86.7652 189.8C87.0249 190.215 87.1594 190.698 87.1685 191.249H85.6167C85.603 190.976 85.5347 190.729 85.4116 190.511C85.2932 190.287 85.1245 190.11 84.9058 189.978C84.6916 189.845 84.4341 189.779 84.1333 189.779C83.8006 189.779 83.5249 189.848 83.3062 189.984C83.0874 190.117 82.9165 190.299 82.7935 190.531C82.6704 190.759 82.5816 191.017 82.5269 191.304C82.4767 191.586 82.4517 191.88 82.4517 192.186V192.425C82.4517 192.73 82.4767 193.026 82.5269 193.313C82.577 193.601 82.6636 193.858 82.7866 194.086C82.9142 194.309 83.0874 194.489 83.3062 194.626C83.5249 194.758 83.8029 194.824 84.1402 194.824ZM91.5438 188.604V189.807H87.3738V188.604H91.5438ZM88.577 186.792H90.2244V193.956C90.2244 194.184 90.2563 194.359 90.3201 194.482C90.3885 194.601 90.4819 194.681 90.6004 194.722C90.7189 194.763 90.8579 194.783 91.0174 194.783C91.1313 194.783 91.2407 194.776 91.3455 194.763C91.4503 194.749 91.5346 194.735 91.5984 194.722L91.6053 195.979C91.4686 196.021 91.3091 196.057 91.1268 196.089C90.949 196.121 90.7439 196.137 90.5115 196.137C90.1333 196.137 89.7983 196.071 89.5066 195.938C89.215 195.802 88.9871 195.581 88.823 195.275C88.659 194.97 88.577 194.564 88.577 194.059V186.792ZM94.2989 188.604V196H92.6446V188.604H94.2989ZM92.5352 186.662C92.5352 186.411 92.6173 186.204 92.7813 186.04C92.9499 185.871 93.1824 185.787 93.4786 185.787C93.7703 185.787 94.0004 185.871 94.169 186.04C94.3376 186.204 94.422 186.411 94.422 186.662C94.422 186.908 94.3376 187.113 94.169 187.277C94.0004 187.441 93.7703 187.523 93.4786 187.523C93.1824 187.523 92.9499 187.441 92.7813 187.277C92.6173 187.113 92.5352 186.908 92.5352 186.662ZM95.5091 192.384V192.227C95.5091 191.693 95.5866 191.199 95.7416 190.743C95.8965 190.283 96.1198 189.884 96.4115 189.547C96.7077 189.205 97.0677 188.941 97.4916 188.754C97.9199 188.562 98.403 188.467 98.9408 188.467C99.4831 188.467 99.9662 188.562 100.39 188.754C100.818 188.941 101.181 189.205 101.477 189.547C101.773 189.884 101.999 190.283 102.154 190.743C102.309 191.199 102.386 191.693 102.386 192.227V192.384C102.386 192.917 102.309 193.411 102.154 193.867C101.999 194.323 101.773 194.722 101.477 195.063C101.181 195.401 100.821 195.665 100.397 195.856C99.973 196.043 99.4922 196.137 98.9545 196.137C98.4121 196.137 97.9268 196.043 97.4984 195.856C97.0746 195.665 96.7145 195.401 96.4183 195.063C96.1221 194.722 95.8965 194.323 95.7416 193.867C95.5866 193.411 95.5091 192.917 95.5091 192.384ZM97.1566 192.227V192.384C97.1566 192.716 97.1908 193.031 97.2591 193.327C97.3275 193.623 97.4346 193.883 97.5804 194.106C97.7263 194.33 97.9131 194.505 98.141 194.633C98.3688 194.76 98.64 194.824 98.9545 194.824C99.2598 194.824 99.5241 194.76 99.7474 194.633C99.9753 194.505 100.162 194.33 100.308 194.106C100.454 193.883 100.561 193.623 100.629 193.327C100.702 193.031 100.739 192.716 100.739 192.384V192.227C100.739 191.898 100.702 191.589 100.629 191.297C100.561 191.001 100.452 190.739 100.301 190.511C100.155 190.283 99.9684 190.105 99.7406 189.978C99.5173 189.845 99.2507 189.779 98.9408 189.779C98.6309 189.779 98.362 189.845 98.1341 189.978C97.9108 190.105 97.7263 190.283 97.5804 190.511C97.4346 190.739 97.3275 191.001 97.2591 191.297C97.1908 191.589 97.1566 191.898 97.1566 192.227ZM105.121 190.183V196H103.473V188.604H105.025L105.121 190.183ZM104.827 192.028L104.294 192.021C104.298 191.497 104.371 191.017 104.512 190.579C104.658 190.142 104.859 189.766 105.114 189.451C105.374 189.137 105.684 188.895 106.044 188.727C106.404 188.553 106.805 188.467 107.247 188.467C107.602 188.467 107.923 188.517 108.211 188.617C108.502 188.713 108.751 188.87 108.956 189.089C109.165 189.308 109.325 189.592 109.434 189.943C109.544 190.29 109.598 190.716 109.598 191.222V196H107.944V191.215C107.944 190.859 107.892 190.579 107.787 190.374C107.686 190.164 107.538 190.016 107.342 189.93C107.151 189.839 106.912 189.793 106.625 189.793C106.342 189.793 106.089 189.852 105.866 189.971C105.643 190.089 105.453 190.251 105.298 190.456C105.148 190.661 105.032 190.898 104.95 191.167C104.868 191.436 104.827 191.723 104.827 192.028Z" fill="#A3AED0"/>
<path d="M42.1826 218.888L41.3359 222.108H25.6807L26.5439 218.888H42.1826ZM34.1641 237L26.1621 227.521L26.1455 224.682H30.0469C30.9544 224.682 31.7015 224.505 32.2881 224.15C32.8747 223.796 33.3118 223.32 33.5996 222.723C33.8874 222.114 34.0312 221.439 34.0312 220.697C34.0312 219.923 33.8984 219.236 33.6328 218.639C33.3672 218.041 32.9411 217.576 32.3545 217.244C31.7679 216.901 30.9876 216.729 30.0137 216.729H25.6973L26.6768 212.828H30.0137C32.0059 212.828 33.666 213.127 34.9941 213.725C36.3223 214.322 37.3184 215.186 37.9824 216.314C38.6465 217.432 38.9785 218.788 38.9785 220.382C38.9785 221.776 38.7572 222.999 38.3145 224.051C37.8717 225.102 37.1689 225.971 36.2061 226.657C35.2432 227.332 33.9759 227.808 32.4043 228.085L39.6094 236.768V237H34.1641ZM42.2158 212.828L41.3525 216.032H28.3867L29.25 212.828H42.2158ZM60.4118 233.265V237H43.8766V233.812L51.696 225.429C52.4818 224.554 53.1016 223.785 53.5554 223.121C54.0091 222.446 54.3356 221.843 54.5348 221.312C54.7451 220.769 54.8503 220.255 54.8503 219.768C54.8503 219.037 54.7285 218.412 54.485 217.892C54.2415 217.36 53.8818 216.951 53.4059 216.663C52.9411 216.375 52.3656 216.231 51.6794 216.231C50.9489 216.231 50.318 216.409 49.7868 216.763C49.2666 217.117 48.8682 217.609 48.5915 218.24C48.3259 218.871 48.193 219.585 48.193 220.382H43.3952C43.3952 218.943 43.7383 217.626 44.4245 216.431C45.1107 215.224 46.0791 214.267 47.3298 213.559C48.5804 212.839 50.0635 212.479 51.779 212.479C53.4723 212.479 54.9001 212.756 56.0622 213.31C57.2354 213.852 58.1208 214.638 58.7184 215.667C59.3272 216.685 59.6315 217.903 59.6315 219.319C59.6315 220.116 59.5042 220.896 59.2497 221.66C58.9951 222.413 58.6299 223.165 58.154 223.918C57.6891 224.66 57.1247 225.412 56.4606 226.176C55.7966 226.939 55.0606 227.731 54.2526 228.55L50.0524 233.265H60.4118ZM67.4515 232.966L67.4349 236.17C67.4349 237.398 67.125 238.638 66.5052 239.889C65.8965 241.139 65.1218 242.163 64.181 242.96L61.6908 241.682C61.9675 241.173 62.2386 240.663 62.5043 240.154C62.7699 239.645 62.9912 239.086 63.1683 238.478C63.3454 237.869 63.4339 237.177 63.4339 236.402V232.966H67.4515ZM74.9063 225.993L71.0879 225.08L72.4659 212.828H86.0459V216.696H76.4004L75.8028 222.059C76.1237 221.87 76.6107 221.671 77.2637 221.461C77.9167 221.24 78.6472 221.129 79.4551 221.129C80.6283 221.129 81.6687 221.312 82.5762 221.677C83.4838 222.042 84.253 222.573 84.8838 223.271C85.5258 223.968 86.0127 224.82 86.3448 225.827C86.6768 226.834 86.8428 227.974 86.8428 229.247C86.8428 230.321 86.6768 231.344 86.3448 232.318C86.0127 233.281 85.5092 234.145 84.834 234.908C84.1589 235.661 83.3122 236.253 82.294 236.685C81.2758 237.116 80.0694 237.332 78.6748 237.332C77.6345 237.332 76.6273 237.177 75.6534 236.867C74.6905 236.557 73.8217 236.098 73.0469 235.489C72.2832 234.881 71.669 234.145 71.2041 233.281C70.7504 232.407 70.5124 231.411 70.4903 230.293H75.2383C75.3047 230.979 75.4818 231.571 75.7696 232.069C76.0684 232.556 76.4613 232.933 76.9483 233.198C77.4353 233.464 78.0052 233.597 78.6582 233.597C79.267 233.597 79.7871 233.48 80.2188 233.248C80.6504 233.016 80.9991 232.695 81.2647 232.285C81.5303 231.865 81.724 231.378 81.8457 230.824C81.9786 230.26 82.045 229.651 82.045 228.998C82.045 228.345 81.9675 227.753 81.8125 227.222C81.6576 226.69 81.4196 226.231 81.0987 225.844C80.7777 225.456 80.3682 225.158 79.8702 224.947C79.3832 224.737 78.8132 224.632 78.1602 224.632C77.2748 224.632 76.5886 224.77 76.1016 225.047C75.6257 225.324 75.2273 225.639 74.9063 225.993ZM105.67 212.828V215.401L96.323 237H91.2761L100.623 216.563H88.5866V212.828H105.67ZM112.826 232.966L112.809 236.17C112.809 237.398 112.499 238.638 111.879 239.889C111.271 241.139 110.496 242.163 109.555 242.96L107.065 241.682C107.342 241.173 107.613 240.663 107.878 240.154C108.144 239.645 108.365 239.086 108.542 238.478C108.719 237.869 108.808 237.177 108.808 236.402V232.966H112.826ZM119.168 233.364H119.483C120.812 233.364 121.952 233.204 122.903 232.883C123.866 232.551 124.658 232.075 125.277 231.455C125.897 230.835 126.357 230.077 126.655 229.181C126.954 228.273 127.104 227.244 127.104 226.093V221.511C127.104 220.636 127.015 219.867 126.838 219.203C126.672 218.539 126.428 217.991 126.107 217.56C125.798 217.117 125.432 216.785 125.012 216.563C124.602 216.342 124.149 216.231 123.65 216.231C123.119 216.231 122.649 216.364 122.239 216.63C121.83 216.884 121.481 217.233 121.193 217.676C120.917 218.118 120.701 218.628 120.546 219.203C120.402 219.768 120.33 220.36 120.33 220.979C120.33 221.599 120.402 222.191 120.546 222.756C120.69 223.309 120.906 223.802 121.193 224.233C121.481 224.654 121.841 224.992 122.273 225.246C122.704 225.49 123.213 225.611 123.8 225.611C124.364 225.611 124.868 225.506 125.311 225.296C125.764 225.075 126.146 224.787 126.456 224.433C126.777 224.078 127.021 223.686 127.187 223.254C127.364 222.822 127.452 222.385 127.452 221.942L129.029 222.806C129.029 223.58 128.863 224.344 128.531 225.097C128.199 225.849 127.734 226.535 127.137 227.155C126.55 227.764 125.87 228.251 125.095 228.616C124.32 228.981 123.49 229.164 122.605 229.164C121.476 229.164 120.474 228.959 119.6 228.55C118.725 228.129 117.984 227.554 117.375 226.823C116.777 226.082 116.324 225.218 116.014 224.233C115.704 223.248 115.549 222.18 115.549 221.029C115.549 219.856 115.737 218.755 116.113 217.726C116.501 216.696 117.049 215.789 117.757 215.003C118.476 214.217 119.334 213.603 120.33 213.16C121.337 212.706 122.455 212.479 123.684 212.479C124.912 212.479 126.03 212.717 127.037 213.193C128.044 213.669 128.908 214.344 129.627 215.219C130.346 216.082 130.9 217.117 131.287 218.323C131.686 219.53 131.885 220.869 131.885 222.341V224.001C131.885 225.573 131.713 227.034 131.37 228.384C131.038 229.734 130.535 230.957 129.859 232.053C129.195 233.137 128.365 234.067 127.369 234.842C126.384 235.617 125.239 236.209 123.933 236.618C122.627 237.028 121.166 237.232 119.55 237.232H119.168V233.364ZM138.011 233.364H138.327C139.655 233.364 140.795 233.204 141.747 232.883C142.71 232.551 143.501 232.075 144.121 231.455C144.741 230.835 145.2 230.077 145.499 229.181C145.798 228.273 145.947 227.244 145.947 226.093V221.511C145.947 220.636 145.858 219.867 145.681 219.203C145.515 218.539 145.272 217.991 144.951 217.56C144.641 217.117 144.276 216.785 143.855 216.563C143.446 216.342 142.992 216.231 142.494 216.231C141.963 216.231 141.492 216.364 141.083 216.63C140.673 216.884 140.325 217.233 140.037 217.676C139.76 218.118 139.544 218.628 139.389 219.203C139.246 219.768 139.174 220.36 139.174 220.979C139.174 221.599 139.246 222.191 139.389 222.756C139.533 223.309 139.749 223.802 140.037 224.233C140.325 224.654 140.684 224.992 141.116 225.246C141.548 225.49 142.057 225.611 142.643 225.611C143.208 225.611 143.711 225.506 144.154 225.296C144.608 225.075 144.99 224.787 145.3 224.433C145.621 224.078 145.864 223.686 146.03 223.254C146.207 222.822 146.296 222.385 146.296 221.942L147.873 222.806C147.873 223.58 147.707 224.344 147.375 225.097C147.043 225.849 146.578 226.535 145.98 227.155C145.394 227.764 144.713 228.251 143.938 228.616C143.164 228.981 142.333 229.164 141.448 229.164C140.319 229.164 139.317 228.959 138.443 228.55C137.569 228.129 136.827 227.554 136.219 226.823C135.621 226.082 135.167 225.218 134.857 224.233C134.547 223.248 134.392 222.18 134.392 221.029C134.392 219.856 134.58 218.755 134.957 217.726C135.344 216.696 135.892 215.789 136.6 215.003C137.32 214.217 138.177 213.603 139.174 213.16C140.181 212.706 141.299 212.479 142.527 212.479C143.756 212.479 144.873 212.717 145.881 213.193C146.888 213.669 147.751 214.344 148.47 215.219C149.19 216.082 149.743 217.117 150.131 218.323C150.529 219.53 150.728 220.869 150.728 222.341V224.001C150.728 225.573 150.557 227.034 150.214 228.384C149.882 229.734 149.378 230.957 148.703 232.053C148.039 233.137 147.209 234.067 146.213 234.842C145.228 235.617 144.082 236.209 142.776 236.618C141.47 237.028 140.009 237.232 138.393 237.232H138.011V233.364ZM169.738 222.789V226.973C169.738 228.788 169.544 230.354 169.157 231.671C168.769 232.977 168.21 234.05 167.48 234.892C166.761 235.722 165.903 236.336 164.907 236.734C163.911 237.133 162.804 237.332 161.586 237.332C160.612 237.332 159.705 237.21 158.864 236.967C158.023 236.712 157.264 236.319 156.589 235.788C155.925 235.257 155.35 234.587 154.863 233.779C154.387 232.96 154.022 231.986 153.767 230.857C153.512 229.729 153.385 228.434 153.385 226.973V222.789C153.385 220.974 153.579 219.419 153.966 218.124C154.365 216.818 154.924 215.75 155.643 214.92C156.373 214.09 157.237 213.481 158.233 213.094C159.229 212.695 160.336 212.496 161.553 212.496C162.527 212.496 163.429 212.623 164.259 212.878C165.1 213.121 165.859 213.503 166.534 214.023C167.209 214.544 167.784 215.213 168.26 216.032C168.736 216.84 169.101 217.809 169.356 218.938C169.61 220.055 169.738 221.339 169.738 222.789ZM164.94 227.604V222.142C164.94 221.267 164.89 220.504 164.79 219.851C164.702 219.198 164.564 218.644 164.375 218.19C164.187 217.726 163.955 217.349 163.678 217.062C163.401 216.774 163.086 216.563 162.732 216.431C162.378 216.298 161.985 216.231 161.553 216.231C161.011 216.231 160.529 216.337 160.109 216.547C159.699 216.757 159.351 217.095 159.063 217.56C158.775 218.013 158.554 218.622 158.399 219.386C158.255 220.138 158.183 221.057 158.183 222.142V227.604C158.183 228.478 158.227 229.247 158.316 229.911C158.415 230.575 158.559 231.145 158.747 231.621C158.947 232.086 159.179 232.468 159.445 232.767C159.721 233.054 160.037 233.265 160.391 233.397C160.756 233.53 161.155 233.597 161.586 233.597C162.118 233.597 162.588 233.492 162.997 233.281C163.418 233.06 163.772 232.717 164.06 232.252C164.359 231.776 164.58 231.156 164.724 230.393C164.868 229.629 164.94 228.699 164.94 227.604ZM172.743 234.692C172.743 233.984 172.987 233.392 173.474 232.916C173.972 232.44 174.63 232.202 175.449 232.202C176.268 232.202 176.921 232.44 177.408 232.916C177.906 233.392 178.155 233.984 178.155 234.692C178.155 235.401 177.906 235.993 177.408 236.469C176.921 236.945 176.268 237.183 175.449 237.183C174.63 237.183 173.972 236.945 173.474 236.469C172.987 235.993 172.743 235.401 172.743 234.692ZM197.762 222.789V226.973C197.762 228.788 197.569 230.354 197.181 231.671C196.794 232.977 196.235 234.05 195.505 234.892C194.785 235.722 193.928 236.336 192.931 236.734C191.935 237.133 190.829 237.332 189.611 237.332C188.637 237.332 187.73 237.21 186.888 236.967C186.047 236.712 185.289 236.319 184.614 235.788C183.95 235.257 183.374 234.587 182.887 233.779C182.412 232.96 182.046 231.986 181.792 230.857C181.537 229.729 181.41 228.434 181.41 226.973V222.789C181.41 220.974 181.604 219.419 181.991 218.124C182.389 216.818 182.948 215.75 183.668 214.92C184.398 214.09 185.262 213.481 186.258 213.094C187.254 212.695 188.36 212.496 189.578 212.496C190.552 212.496 191.454 212.623 192.284 212.878C193.125 213.121 193.883 213.503 194.558 214.023C195.234 214.544 195.809 215.213 196.285 216.032C196.761 216.84 197.126 217.809 197.381 218.938C197.635 220.055 197.762 221.339 197.762 222.789ZM192.965 227.604V222.142C192.965 221.267 192.915 220.504 192.815 219.851C192.727 219.198 192.588 218.644 192.4 218.19C192.212 217.726 191.98 217.349 191.703 217.062C191.426 216.774 191.111 216.563 190.757 216.431C190.402 216.298 190.01 216.231 189.578 216.231C189.036 216.231 188.554 216.337 188.134 216.547C187.724 216.757 187.375 217.095 187.088 217.56C186.8 218.013 186.579 218.622 186.424 219.386C186.28 220.138 186.208 221.057 186.208 222.142V227.604C186.208 228.478 186.252 229.247 186.341 229.911C186.44 230.575 186.584 231.145 186.772 231.621C186.971 232.086 187.204 232.468 187.47 232.767C187.746 233.054 188.062 233.265 188.416 233.397C188.781 233.53 189.179 233.597 189.611 233.597C190.142 233.597 190.613 233.492 191.022 233.281C191.443 233.06 191.797 232.717 192.085 232.252C192.384 231.776 192.605 231.156 192.749 230.393C192.893 229.629 192.965 228.699 192.965 227.604ZM216.606 222.789V226.973C216.606 228.788 216.412 230.354 216.025 231.671C215.638 232.977 215.079 234.05 214.348 234.892C213.629 235.722 212.771 236.336 211.775 236.734C210.779 237.133 209.672 237.332 208.455 237.332C207.481 237.332 206.573 237.21 205.732 236.967C204.891 236.712 204.133 236.319 203.458 235.788C202.793 235.257 202.218 234.587 201.731 233.779C201.255 232.96 200.89 231.986 200.635 230.857C200.381 229.729 200.253 228.434 200.253 226.973V222.789C200.253 220.974 200.447 219.419 200.834 218.124C201.233 216.818 201.792 215.75 202.511 214.92C203.242 214.09 204.105 213.481 205.101 213.094C206.097 212.695 207.204 212.496 208.421 212.496C209.395 212.496 210.297 212.623 211.127 212.878C211.969 213.121 212.727 213.503 213.402 214.023C214.077 214.544 214.652 215.213 215.128 216.032C215.604 216.84 215.97 217.809 216.224 218.938C216.479 220.055 216.606 221.339 216.606 222.789ZM211.808 227.604V222.142C211.808 221.267 211.758 220.504 211.659 219.851C211.57 219.198 211.432 218.644 211.244 218.19C211.055 217.726 210.823 217.349 210.546 217.062C210.27 216.774 209.954 216.563 209.6 216.431C209.246 216.298 208.853 216.231 208.421 216.231C207.879 216.231 207.398 216.337 206.977 216.547C206.568 216.757 206.219 217.095 205.931 217.56C205.643 218.013 205.422 218.622 205.267 219.386C205.123 220.138 205.051 221.057 205.051 222.142V227.604C205.051 228.478 205.096 229.247 205.184 229.911C205.284 230.575 205.428 231.145 205.616 231.621C205.815 232.086 206.047 232.468 206.313 232.767C206.59 233.054 206.905 233.265 207.259 233.397C207.624 233.53 208.023 233.597 208.455 233.597C208.986 233.597 209.456 233.492 209.866 233.281C210.286 233.06 210.64 232.717 210.928 232.252C211.227 231.776 211.448 231.156 211.592 230.393C211.736 229.629 211.808 228.699 211.808 227.604Z" fill="#2B3674"/>
<g filter="url(#filter0_d_3064_4289)">
<rect x="405" y="110" width="154.207" height="172" rx="26" fill="white"/>
</g>
<path d="M524.362 207.492C524.362 183.948 505.276 164.862 481.733 164.862C458.189 164.862 439.104 183.948 439.104 207.492C439.104 231.035 458.189 250.121 481.733 250.121" stroke="#5030E5" stroke-width="8" stroke-linecap="round" stroke-linejoin="round"/>
<path d="M426.038 144.275L429.216 134.195H431.687L434.865 144.275H433.129L430.245 135.231H430.623L427.774 144.275H426.038ZM427.809 142.091V140.516H433.101V142.091H427.809ZM440.561 144.275C440.062 144.369 439.572 144.408 439.091 144.394C438.615 144.385 438.188 144.299 437.81 144.135C437.432 143.967 437.145 143.704 436.949 143.344C436.777 143.018 436.686 142.684 436.676 142.343C436.667 142.003 436.662 141.618 436.662 141.188V134.615H438.342V141.09C438.342 141.394 438.345 141.66 438.349 141.888C438.359 142.117 438.408 142.304 438.496 142.448C438.664 142.728 438.933 142.885 439.301 142.917C439.67 142.95 440.09 142.931 440.561 142.861V144.275ZM435.29 138.038V136.715H440.561V138.038H435.29ZM445.783 144.275C445.284 144.369 444.794 144.408 444.313 144.394C443.837 144.385 443.41 144.299 443.032 144.135C442.654 143.967 442.367 143.704 442.171 143.344C441.999 143.018 441.908 142.684 441.898 142.343C441.889 142.003 441.884 141.618 441.884 141.188V134.615H443.564V141.09C443.564 141.394 443.567 141.66 443.571 141.888C443.581 142.117 443.63 142.304 443.718 142.448C443.886 142.728 444.155 142.885 444.523 142.917C444.892 142.95 445.312 142.931 445.783 142.861V144.275ZM440.512 138.038V136.715H445.783V138.038H440.512ZM450.86 144.485C450.095 144.485 449.423 144.32 448.844 143.988C448.266 143.657 447.813 143.197 447.486 142.609C447.164 142.021 447.003 141.345 447.003 140.579C447.003 139.753 447.162 139.037 447.479 138.43C447.797 137.819 448.238 137.345 448.802 137.009C449.367 136.673 450.02 136.505 450.762 136.505C451.546 136.505 452.211 136.69 452.757 137.058C453.308 137.422 453.716 137.938 453.982 138.605C454.248 139.273 454.349 140.059 454.283 140.964H452.61V140.348C452.606 139.527 452.461 138.927 452.176 138.549C451.892 138.171 451.444 137.982 450.832 137.982C450.142 137.982 449.628 138.197 449.292 138.626C448.956 139.051 448.788 139.674 448.788 140.495C448.788 141.261 448.956 141.853 449.292 142.273C449.628 142.693 450.118 142.903 450.762 142.903C451.178 142.903 451.535 142.812 451.833 142.63C452.137 142.444 452.37 142.175 452.533 141.825L454.199 142.329C453.91 143.011 453.462 143.54 452.855 143.918C452.253 144.296 451.588 144.485 450.86 144.485ZM448.256 140.964V139.69H453.457V140.964H448.256ZM460.869 144.275V140.635C460.869 140.397 460.853 140.134 460.82 139.844C460.787 139.555 460.71 139.277 460.589 139.011C460.472 138.741 460.295 138.519 460.057 138.346C459.824 138.174 459.506 138.087 459.105 138.087C458.89 138.087 458.678 138.122 458.468 138.192C458.258 138.262 458.067 138.384 457.894 138.556C457.726 138.724 457.591 138.958 457.488 139.256C457.385 139.55 457.334 139.928 457.334 140.39L456.333 139.963C456.333 139.319 456.457 138.736 456.704 138.213C456.956 137.691 457.325 137.275 457.81 136.967C458.295 136.655 458.893 136.498 459.602 136.498C460.162 136.498 460.624 136.592 460.988 136.778C461.352 136.965 461.641 137.203 461.856 137.492C462.071 137.782 462.229 138.09 462.332 138.416C462.435 138.743 462.5 139.053 462.528 139.347C462.561 139.637 462.577 139.872 462.577 140.054V144.275H460.869ZM455.626 144.275V136.715H457.131V139.06H457.334V144.275H455.626ZM467.312 144.485C466.616 144.485 466.01 144.31 465.492 143.96C464.974 143.61 464.572 143.134 464.288 142.532C464.003 141.93 463.861 141.251 463.861 140.495C463.861 139.73 464.003 139.049 464.288 138.451C464.577 137.849 464.985 137.376 465.513 137.03C466.04 136.68 466.661 136.505 467.375 136.505C468.093 136.505 468.695 136.68 469.181 137.03C469.671 137.376 470.042 137.849 470.294 138.451C470.546 139.053 470.672 139.735 470.672 140.495C470.672 141.247 470.546 141.926 470.294 142.532C470.042 143.134 469.666 143.61 469.167 143.96C468.667 144.31 468.049 144.485 467.312 144.485ZM467.571 142.973C468.023 142.973 468.387 142.871 468.663 142.665C468.943 142.455 469.146 142.164 469.272 141.79C469.402 141.417 469.468 140.985 469.468 140.495C469.468 140.001 469.402 139.569 469.272 139.2C469.146 138.827 468.947 138.538 468.677 138.332C468.406 138.122 468.056 138.017 467.627 138.017C467.174 138.017 466.801 138.129 466.507 138.353C466.213 138.573 465.996 138.871 465.856 139.249C465.716 139.623 465.646 140.038 465.646 140.495C465.646 140.957 465.713 141.377 465.849 141.755C465.989 142.129 466.201 142.425 466.486 142.644C466.77 142.864 467.132 142.973 467.571 142.973ZM469.468 144.275V138.969H469.258V134.195H470.959V144.275H469.468ZM475.035 144.485C474.489 144.485 474.027 144.383 473.649 144.177C473.271 143.967 472.984 143.69 472.788 143.344C472.597 142.999 472.501 142.619 472.501 142.203C472.501 141.839 472.562 141.513 472.683 141.223C472.805 140.929 472.991 140.677 473.243 140.467C473.495 140.253 473.822 140.078 474.223 139.942C474.527 139.844 474.881 139.756 475.287 139.676C475.698 139.597 476.141 139.525 476.617 139.459C477.098 139.389 477.6 139.315 478.122 139.235L477.52 139.578C477.525 139.056 477.408 138.671 477.17 138.423C476.932 138.176 476.531 138.052 475.966 138.052C475.626 138.052 475.297 138.132 474.979 138.29C474.662 138.449 474.44 138.722 474.314 139.109L472.774 138.626C472.961 137.987 473.316 137.474 473.838 137.086C474.366 136.699 475.075 136.505 475.966 136.505C476.638 136.505 477.229 136.615 477.737 136.834C478.251 137.054 478.631 137.413 478.878 137.912C479.014 138.178 479.095 138.451 479.123 138.731C479.151 139.007 479.165 139.308 479.165 139.634V144.275H477.688V142.637L477.933 142.903C477.593 143.449 477.194 143.851 476.736 144.107C476.284 144.359 475.717 144.485 475.035 144.485ZM475.371 143.141C475.754 143.141 476.081 143.074 476.351 142.938C476.622 142.803 476.837 142.637 476.995 142.441C477.159 142.245 477.268 142.061 477.324 141.888C477.413 141.674 477.462 141.429 477.471 141.153C477.485 140.873 477.492 140.647 477.492 140.474L478.01 140.628C477.502 140.708 477.065 140.778 476.701 140.838C476.337 140.899 476.025 140.957 475.763 141.013C475.502 141.065 475.271 141.123 475.07 141.188C474.874 141.258 474.709 141.34 474.573 141.433C474.438 141.527 474.333 141.634 474.258 141.755C474.188 141.877 474.153 142.019 474.153 142.182C474.153 142.369 474.2 142.535 474.293 142.679C474.387 142.819 474.522 142.931 474.699 143.015C474.881 143.099 475.105 143.141 475.371 143.141ZM486.217 144.275V140.635C486.217 140.397 486.2 140.134 486.168 139.844C486.135 139.555 486.058 139.277 485.937 139.011C485.82 138.741 485.643 138.519 485.405 138.346C485.171 138.174 484.854 138.087 484.453 138.087C484.238 138.087 484.026 138.122 483.816 138.192C483.606 138.262 483.414 138.384 483.242 138.556C483.074 138.724 482.938 138.958 482.836 139.256C482.733 139.55 482.682 139.928 482.682 140.39L481.681 139.963C481.681 139.319 481.804 138.736 482.052 138.213C482.304 137.691 482.672 137.275 483.158 136.967C483.643 136.655 484.24 136.498 484.95 136.498C485.51 136.498 485.972 136.592 486.336 136.778C486.7 136.965 486.989 137.203 487.204 137.492C487.418 137.782 487.577 138.09 487.68 138.416C487.782 138.743 487.848 139.053 487.876 139.347C487.908 139.637 487.925 139.872 487.925 140.054V144.275H486.217ZM480.974 144.275V136.715H482.479V139.06H482.682V144.275H480.974ZM492.911 144.485C492.132 144.485 491.467 144.313 490.916 143.967C490.366 143.617 489.943 143.141 489.649 142.539C489.36 141.937 489.213 141.256 489.208 140.495C489.213 139.721 489.365 139.035 489.663 138.437C489.967 137.835 490.396 137.364 490.951 137.023C491.507 136.678 492.167 136.505 492.932 136.505C493.791 136.505 494.517 136.722 495.109 137.156C495.707 137.586 496.096 138.174 496.278 138.92L494.598 139.375C494.468 138.969 494.251 138.654 493.947 138.43C493.644 138.202 493.299 138.087 492.911 138.087C492.473 138.087 492.111 138.192 491.826 138.402C491.542 138.608 491.332 138.892 491.196 139.256C491.061 139.62 490.993 140.033 490.993 140.495C490.993 141.214 491.154 141.795 491.476 142.238C491.798 142.682 492.277 142.903 492.911 142.903C493.359 142.903 493.712 142.801 493.968 142.595C494.23 142.39 494.426 142.094 494.556 141.706L496.278 142.091C496.045 142.861 495.637 143.454 495.053 143.869C494.47 144.28 493.756 144.485 492.911 144.485ZM500.913 144.485C500.148 144.485 499.476 144.32 498.897 143.988C498.318 143.657 497.866 143.197 497.539 142.609C497.217 142.021 497.056 141.345 497.056 140.579C497.056 139.753 497.215 139.037 497.532 138.43C497.849 137.819 498.29 137.345 498.855 137.009C499.42 136.673 500.073 136.505 500.815 136.505C501.599 136.505 502.264 136.69 502.81 137.058C503.361 137.422 503.769 137.938 504.035 138.605C504.301 139.273 504.401 140.059 504.336 140.964H502.663V140.348C502.658 139.527 502.514 138.927 502.229 138.549C501.944 138.171 501.496 137.982 500.885 137.982C500.194 137.982 499.681 138.197 499.345 138.626C499.009 139.051 498.841 139.674 498.841 140.495C498.841 141.261 499.009 141.853 499.345 142.273C499.681 142.693 500.171 142.903 500.815 142.903C501.23 142.903 501.587 142.812 501.886 142.63C502.189 142.444 502.423 142.175 502.586 141.825L504.252 142.329C503.963 143.011 503.515 143.54 502.908 143.918C502.306 144.296 501.641 144.485 500.913 144.485ZM498.309 140.964V139.69H503.51V140.964H498.309Z" fill="#222222"/>
<circle cx="482.104" cy="207.862" r="29.6552" fill="#F8C07F" fill-opacity="0.3"/>
<path d="M468.704 213L472.672 203.304H467.64V201.48H474.736V203.304L470.784 213H468.704ZM480.067 213.24C479.481 213.24 478.934 213.12 478.427 212.88C477.921 212.635 477.483 212.299 477.115 211.872C476.753 211.445 476.491 210.949 476.331 210.384L478.187 209.888C478.262 210.197 478.398 210.464 478.595 210.688C478.798 210.912 479.033 211.085 479.299 211.208C479.571 211.331 479.851 211.392 480.139 211.392C480.513 211.392 480.854 211.301 481.163 211.12C481.473 210.939 481.718 210.696 481.899 210.392C482.081 210.083 482.171 209.741 482.171 209.368C482.171 208.995 482.078 208.656 481.891 208.352C481.71 208.043 481.465 207.8 481.155 207.624C480.846 207.443 480.507 207.352 480.139 207.352C479.697 207.352 479.329 207.432 479.035 207.592C478.747 207.752 478.526 207.923 478.371 208.104L476.723 207.576L477.075 201.48H483.331V203.288H478.107L478.827 202.608L478.571 206.848L478.219 206.416C478.518 206.144 478.865 205.941 479.259 205.808C479.654 205.675 480.035 205.608 480.403 205.608C481.123 205.608 481.761 205.773 482.315 206.104C482.875 206.429 483.313 206.875 483.627 207.44C483.947 208.005 484.107 208.648 484.107 209.368C484.107 210.088 483.921 210.741 483.547 211.328C483.174 211.909 482.681 212.373 482.067 212.72C481.459 213.067 480.793 213.24 480.067 213.24ZM487.626 213L486.346 211.72L496.594 201.48L497.874 202.768L487.626 213ZM495.474 213.24C494.946 213.24 494.464 213.112 494.026 212.856C493.594 212.595 493.248 212.248 492.986 211.816C492.725 211.379 492.594 210.893 492.594 210.36C492.594 209.837 492.728 209.357 492.994 208.92C493.261 208.483 493.613 208.133 494.05 207.872C494.488 207.611 494.962 207.48 495.474 207.48C496.002 207.48 496.485 207.611 496.922 207.872C497.36 208.128 497.706 208.475 497.962 208.912C498.224 209.344 498.354 209.827 498.354 210.36C498.354 210.893 498.224 211.379 497.962 211.816C497.706 212.248 497.36 212.595 496.922 212.856C496.485 213.112 496.002 213.24 495.474 213.24ZM495.474 211.592C495.693 211.592 495.896 211.536 496.082 211.424C496.274 211.312 496.426 211.163 496.538 210.976C496.65 210.789 496.706 210.584 496.706 210.36C496.706 210.136 496.65 209.931 496.538 209.744C496.426 209.557 496.274 209.408 496.082 209.296C495.896 209.184 495.693 209.128 495.474 209.128C495.25 209.128 495.045 209.184 494.858 209.296C494.672 209.408 494.52 209.557 494.402 209.744C494.29 209.931 494.234 210.136 494.234 210.36C494.234 210.584 494.29 210.789 494.402 210.976C494.52 211.163 494.672 211.312 494.858 211.424C495.045 211.536 495.25 211.592 495.474 211.592ZM488.746 207C488.218 207 487.736 206.872 487.298 206.616C486.861 206.355 486.512 206.008 486.25 205.576C485.994 205.139 485.866 204.653 485.866 204.12C485.866 203.597 486 203.117 486.266 202.68C486.533 202.243 486.885 201.893 487.322 201.632C487.76 201.371 488.234 201.24 488.746 201.24C489.274 201.24 489.754 201.371 490.186 201.632C490.624 201.888 490.973 202.235 491.234 202.672C491.496 203.104 491.626 203.587 491.626 204.12C491.626 204.653 491.496 205.139 491.234 205.576C490.973 206.008 490.624 206.355 490.186 206.616C489.754 206.872 489.274 207 488.746 207ZM488.746 205.352C488.97 205.352 489.176 205.296 489.362 205.184C489.549 205.072 489.698 204.923 489.81 204.736C489.922 204.549 489.978 204.344 489.978 204.12C489.978 203.896 489.922 203.691 489.81 203.504C489.698 203.317 489.549 203.168 489.362 203.056C489.176 202.944 488.97 202.888 488.746 202.888C488.522 202.888 488.317 202.944 488.13 203.056C487.944 203.168 487.794 203.317 487.682 203.504C487.57 203.691 487.514 203.896 487.514 204.12C487.514 204.344 487.57 204.549 487.682 204.736C487.794 204.923 487.944 205.072 488.13 205.184C488.317 205.296 488.522 205.352 488.746 205.352Z" fill="#F5A547"/>
<defs>
<filter id="filter0_d_3064_4289" x="195" y="0" width="574.207" height="592" filterUnits="userSpaceOnUse" color-interpolation-filters="sRGB">
<feFlood flood-opacity="0" result="BackgroundImageFix"/>
<feColorMatrix in="SourceAlpha" type="matrix" values="0 0 0 0 0 0 0 0 0 0 0 0 0 0 0 0 0 0 127 0" result="hardAlpha"/>
<feMorphology radius="40" operator="dilate" in="SourceAlpha" result="effect1_dropShadow_3064_4289"/>
<feOffset dy="100"/>
<feGaussianBlur stdDeviation="85"/>
<feComposite in2="hardAlpha" operator="out"/>
<feColorMatrix type="matrix" values="0 0 0 0 0.353616 0 0 0 0 0.321406 0 0 0 0 0.503594 0 0 0 0.28 0"/>
<feBlend mode="normal" in2="BackgroundImageFix" result="effect1_dropShadow_3064_4289"/>
<feBlend mode="normal" in="SourceGraphic" in2="effect1_dropShadow_3064_4289" result="shape"/>
</filter>
<linearGradient id="paint0_linear_3064_4289" x1="453.728" y1="386.029" x2="453.728" y2="424" gradientUnits="userSpaceOnUse">
<stop stop-color="#4318FF"/>
<stop offset="1" stop-color="#4318FF" stop-opacity="0.28"/>
</linearGradient>
<linearGradient id="paint1_linear_3064_4289" x1="385.605" y1="279.5" x2="385.605" y2="424" gradientUnits="userSpaceOnUse">
<stop stop-color="#4318FF"/>
<stop offset="1" stop-color="#4318FF" stop-opacity="0.28"/>
</linearGradient>
<linearGradient id="paint2_linear_3064_4289" x1="318.767" y1="314.307" x2="318.767" y2="424" gradientUnits="userSpaceOnUse">
<stop stop-color="#4318FF"/>
<stop offset="1" stop-color="#4318FF" stop-opacity="0.28"/>
</linearGradient>
<linearGradient id="paint3_linear_3064_4289" x1="250.642" y1="341.73" x2="250.642" y2="424" gradientUnits="userSpaceOnUse">
<stop stop-color="#4318FF"/>
<stop offset="1" stop-color="#4318FF" stop-opacity="0.28"/>
</linearGradient>
<linearGradient id="paint4_linear_3064_4289" x1="182.519" y1="293.212" x2="182.519" y2="424" gradientUnits="userSpaceOnUse">
<stop stop-color="#4318FF"/>
<stop offset="1" stop-color="#4318FF" stop-opacity="0.28"/>
</linearGradient>
<linearGradient id="paint5_linear_3064_4289" x1="115.681" y1="357.551" x2="115.681" y2="424" gradientUnits="userSpaceOnUse">
<stop stop-color="#4318FF"/>
<stop offset="1" stop-color="#4318FF" stop-opacity="0.28"/>
</linearGradient>
<linearGradient id="paint6_linear_3064_4289" x1="47.5577" y1="330.128" x2="47.5577" y2="424" gradientUnits="userSpaceOnUse">
<stop stop-color="#4318FF"/>
<stop offset="1" stop-color="#4318FF" stop-opacity="0.28"/>
</linearGradient>
<clipPath id="clip0_3064_4289">
<rect width="18" height="18" fill="white" transform="translate(418 185)"/>
</clipPath>
</defs>
</svg>
