<svg width="500" height="345" viewBox="0 0 500 345" fill="none" xmlns="http://www.w3.org/2000/svg">
<rect width="500" height="345" rx="20" fill="white"/>
<path d="M43.0952 300.144C42.3512 300.144 41.7072 299.96 41.1632 299.592C40.6272 299.224 40.2152 298.716 39.9272 298.068C39.6392 297.412 39.4952 296.656 39.4952 295.8C39.4952 294.944 39.6392 294.192 39.9272 293.544C40.2152 292.888 40.6272 292.376 41.1632 292.008C41.6992 291.64 42.3432 291.456 43.0952 291.456C43.8472 291.456 44.4912 291.64 45.0272 292.008C45.5632 292.376 45.9752 292.888 46.2632 293.544C46.5512 294.192 46.6952 294.944 46.6952 295.8C46.6952 296.656 46.5512 297.412 46.2632 298.068C45.9752 298.716 45.5632 299.224 45.0272 299.592C44.4912 299.96 43.8472 300.144 43.0952 300.144ZM43.0952 298.692C43.4792 298.692 43.8192 298.576 44.1152 298.344C44.4112 298.104 44.6392 297.768 44.7992 297.336C44.9672 296.904 45.0512 296.392 45.0512 295.8C45.0512 295.2 44.9672 294.688 44.7992 294.264C44.6392 293.832 44.4112 293.5 44.1152 293.268C43.8192 293.036 43.4792 292.92 43.0952 292.92C42.7112 292.92 42.3712 293.036 42.0752 293.268C41.7792 293.5 41.5472 293.832 41.3792 294.264C41.2192 294.688 41.1392 295.2 41.1392 295.8C41.1392 296.392 41.2192 296.904 41.3792 297.336C41.5472 297.768 41.7792 298.104 42.0752 298.344C42.3712 298.576 42.7112 298.692 43.0952 298.692ZM51.1873 300.144C50.4433 300.144 49.7993 299.96 49.2553 299.592C48.7193 299.224 48.3073 298.716 48.0193 298.068C47.7313 297.412 47.5873 296.656 47.5873 295.8C47.5873 294.944 47.7313 294.192 48.0193 293.544C48.3073 292.888 48.7193 292.376 49.2553 292.008C49.7913 291.64 50.4353 291.456 51.1873 291.456C51.9393 291.456 52.5833 291.64 53.1193 292.008C53.6553 292.376 54.0673 292.888 54.3553 293.544C54.6433 294.192 54.7873 294.944 54.7873 295.8C54.7873 296.656 54.6433 297.412 54.3553 298.068C54.0673 298.716 53.6553 299.224 53.1193 299.592C52.5833 299.96 51.9393 300.144 51.1873 300.144ZM51.1873 298.692C51.5713 298.692 51.9113 298.576 52.2073 298.344C52.5033 298.104 52.7313 297.768 52.8913 297.336C53.0593 296.904 53.1433 296.392 53.1433 295.8C53.1433 295.2 53.0593 294.688 52.8913 294.264C52.7313 293.832 52.5033 293.5 52.2073 293.268C51.9113 293.036 51.5713 292.92 51.1873 292.92C50.8033 292.92 50.4633 293.036 50.1673 293.268C49.8713 293.5 49.6393 293.832 49.4713 294.264C49.3113 294.688 49.2313 295.2 49.2313 295.8C49.2313 296.392 49.3113 296.904 49.4713 297.336C49.6393 297.768 49.8713 298.104 50.1673 298.344C50.4633 298.576 50.8033 298.692 51.1873 298.692Z" fill="#B0BBD5"/>
<path d="M111.192 300.144C110.448 300.144 109.804 299.96 109.26 299.592C108.724 299.224 108.312 298.716 108.024 298.068C107.736 297.412 107.592 296.656 107.592 295.8C107.592 294.944 107.736 294.192 108.024 293.544C108.312 292.888 108.724 292.376 109.26 292.008C109.796 291.64 110.44 291.456 111.192 291.456C111.944 291.456 112.588 291.64 113.124 292.008C113.66 292.376 114.072 292.888 114.36 293.544C114.648 294.192 114.792 294.944 114.792 295.8C114.792 296.656 114.648 297.412 114.36 298.068C114.072 298.716 113.66 299.224 113.124 299.592C112.588 299.96 111.944 300.144 111.192 300.144ZM111.192 298.692C111.576 298.692 111.916 298.576 112.212 298.344C112.508 298.104 112.736 297.768 112.896 297.336C113.064 296.904 113.148 296.392 113.148 295.8C113.148 295.2 113.064 294.688 112.896 294.264C112.736 293.832 112.508 293.5 112.212 293.268C111.916 293.036 111.576 292.92 111.192 292.92C110.808 292.92 110.468 293.036 110.172 293.268C109.876 293.5 109.644 293.832 109.476 294.264C109.316 294.688 109.236 295.2 109.236 295.8C109.236 296.392 109.316 296.904 109.476 297.336C109.644 297.768 109.876 298.104 110.172 298.344C110.468 298.576 110.808 298.692 111.192 298.692ZM119.813 300V298.476H115.685V297.192L119.597 291.6H121.433V297.072H122.525V298.476H121.433V300H119.813ZM117.413 297.072H119.921V293.388L117.413 297.072Z" fill="#B0BBD5"/>
<path d="M179.178 300.144C178.434 300.144 177.79 299.96 177.246 299.592C176.71 299.224 176.298 298.716 176.01 298.068C175.722 297.412 175.578 296.656 175.578 295.8C175.578 294.944 175.722 294.192 176.01 293.544C176.298 292.888 176.71 292.376 177.246 292.008C177.782 291.64 178.426 291.456 179.178 291.456C179.93 291.456 180.574 291.64 181.11 292.008C181.646 292.376 182.058 292.888 182.346 293.544C182.634 294.192 182.778 294.944 182.778 295.8C182.778 296.656 182.634 297.412 182.346 298.068C182.058 298.716 181.646 299.224 181.11 299.592C180.574 299.96 179.93 300.144 179.178 300.144ZM179.178 298.692C179.562 298.692 179.902 298.576 180.198 298.344C180.494 298.104 180.722 297.768 180.882 297.336C181.05 296.904 181.134 296.392 181.134 295.8C181.134 295.2 181.05 294.688 180.882 294.264C180.722 293.832 180.494 293.5 180.198 293.268C179.902 293.036 179.562 292.92 179.178 292.92C178.794 292.92 178.454 293.036 178.158 293.268C177.862 293.5 177.63 293.832 177.462 294.264C177.302 294.688 177.222 295.2 177.222 295.8C177.222 296.392 177.302 296.904 177.462 297.336C177.63 297.768 177.862 298.104 178.158 298.344C178.454 298.576 178.794 298.692 179.178 298.692ZM186.898 300.144C186.338 300.144 185.826 300.04 185.362 299.832C184.898 299.624 184.53 299.332 184.258 298.956C183.986 298.58 183.85 298.144 183.85 297.648C183.85 297.304 183.906 296.992 184.018 296.712C184.13 296.432 184.29 296.184 184.498 295.968C184.706 295.752 184.95 295.588 185.23 295.476C184.878 295.308 184.594 295.068 184.378 294.756C184.162 294.444 184.054 294.092 184.054 293.7C184.054 293.308 184.162 292.94 184.378 292.596C184.594 292.252 184.91 291.976 185.326 291.768C185.75 291.56 186.274 291.456 186.898 291.456C187.53 291.456 188.054 291.56 188.47 291.768C188.894 291.976 189.21 292.252 189.418 292.596C189.634 292.94 189.742 293.308 189.742 293.7C189.742 294.084 189.634 294.436 189.418 294.756C189.202 295.068 188.918 295.308 188.566 295.476C188.854 295.596 189.102 295.764 189.31 295.98C189.518 296.188 189.678 296.432 189.79 296.712C189.902 296.992 189.958 297.304 189.958 297.648C189.958 298.144 189.822 298.58 189.55 298.956C189.278 299.332 188.91 299.624 188.446 299.832C187.99 300.04 187.474 300.144 186.898 300.144ZM186.898 298.788C187.386 298.788 187.75 298.668 187.99 298.428C188.238 298.188 188.362 297.884 188.362 297.516C188.362 297.108 188.234 296.788 187.978 296.556C187.722 296.316 187.362 296.196 186.898 296.196C186.442 296.196 186.082 296.316 185.818 296.556C185.554 296.788 185.422 297.108 185.422 297.516C185.422 297.884 185.546 298.188 185.794 298.428C186.05 298.668 186.418 298.788 186.898 298.788ZM186.898 295.008C187.298 295.008 187.606 294.904 187.822 294.696C188.046 294.488 188.158 294.22 188.158 293.892C188.158 293.54 188.046 293.268 187.822 293.076C187.606 292.876 187.298 292.776 186.898 292.776C186.506 292.776 186.202 292.876 185.986 293.076C185.77 293.268 185.662 293.544 185.662 293.904C185.662 294.224 185.77 294.488 185.986 294.696C186.202 294.904 186.506 295.008 186.898 295.008Z" fill="#B0BBD5"/>
<path d="M246.359 300V293.46L244.751 293.952V292.608L247.043 291.6H248.039V300H246.359ZM249.262 300V298.812C249.782 298.404 250.286 297.996 250.774 297.588C251.262 297.18 251.698 296.776 252.082 296.376C252.474 295.968 252.782 295.572 253.006 295.188C253.238 294.804 253.354 294.432 253.354 294.072C253.354 293.848 253.31 293.644 253.222 293.46C253.142 293.268 253.014 293.116 252.838 293.004C252.662 292.884 252.43 292.824 252.142 292.824C251.862 292.824 251.622 292.888 251.422 293.016C251.23 293.144 251.082 293.316 250.978 293.532C250.882 293.74 250.834 293.976 250.834 294.24H249.274C249.29 293.624 249.426 293.108 249.682 292.692C249.946 292.276 250.294 291.968 250.726 291.768C251.166 291.56 251.654 291.456 252.19 291.456C252.782 291.456 253.282 291.568 253.69 291.792C254.106 292.008 254.422 292.304 254.638 292.68C254.862 293.056 254.974 293.488 254.974 293.976C254.974 294.344 254.902 294.704 254.758 295.056C254.622 295.408 254.434 295.752 254.194 296.088C253.962 296.416 253.698 296.732 253.402 297.036C253.106 297.34 252.794 297.632 252.466 297.912C252.138 298.184 251.822 298.44 251.518 298.68H255.166V300H249.262Z" fill="#B0BBD5"/>
<path d="M313.801 300V293.46L312.193 293.952V292.608L314.485 291.6H315.481V300H313.801ZM320.772 300V298.476H316.644V297.192L320.556 291.6H322.392V297.072H323.484V298.476H322.392V300H320.772ZM318.372 297.072H320.88V293.388L318.372 297.072Z" fill="#B0BBD5"/>
<path d="M381.06 300V293.46L379.452 293.952V292.608L381.744 291.6H382.74V300H381.06ZM387.336 300.144C386.704 300.144 386.172 300.028 385.74 299.796C385.308 299.564 384.96 299.256 384.696 298.872C384.44 298.48 384.252 298.044 384.132 297.564C384.02 297.076 383.964 296.58 383.964 296.076C383.964 295.132 384.092 294.316 384.348 293.628C384.612 292.94 384.992 292.408 385.488 292.032C385.992 291.648 386.596 291.456 387.3 291.456C387.884 291.456 388.38 291.568 388.788 291.792C389.196 292.016 389.512 292.312 389.736 292.68C389.96 293.04 390.092 293.428 390.132 293.844H388.632C388.56 293.508 388.408 293.248 388.176 293.064C387.944 292.88 387.644 292.788 387.276 292.788C386.932 292.788 386.632 292.896 386.376 293.112C386.12 293.32 385.924 293.632 385.788 294.048C385.652 294.464 385.572 294.984 385.548 295.608C385.548 295.624 385.548 295.64 385.548 295.656C385.548 295.672 385.548 295.688 385.548 295.704C385.668 295.48 385.832 295.284 386.04 295.116C386.248 294.948 386.488 294.816 386.76 294.72C387.032 294.616 387.316 294.564 387.612 294.564C388.084 294.564 388.516 294.676 388.908 294.9C389.308 295.124 389.628 295.44 389.868 295.848C390.108 296.256 390.228 296.74 390.228 297.3C390.228 297.804 390.104 298.276 389.856 298.716C389.616 299.148 389.28 299.496 388.848 299.76C388.416 300.016 387.912 300.144 387.336 300.144ZM387.24 298.752C387.512 298.752 387.756 298.692 387.972 298.572C388.196 298.452 388.368 298.288 388.488 298.08C388.616 297.864 388.68 297.62 388.68 297.348C388.68 297.06 388.616 296.812 388.488 296.604C388.368 296.396 388.196 296.232 387.972 296.112C387.756 295.992 387.508 295.932 387.228 295.932C386.948 295.932 386.696 295.992 386.472 296.112C386.256 296.232 386.084 296.396 385.956 296.604C385.828 296.812 385.764 297.056 385.764 297.336C385.764 297.616 385.828 297.864 385.956 298.08C386.084 298.288 386.26 298.452 386.484 298.572C386.708 298.692 386.96 298.752 387.24 298.752Z" fill="#B0BBD5"/>
<path d="M448.215 300V293.46L446.607 293.952V292.608L448.899 291.6H449.895V300H448.215ZM454.286 300.144C453.726 300.144 453.214 300.04 452.75 299.832C452.286 299.624 451.918 299.332 451.646 298.956C451.374 298.58 451.238 298.144 451.238 297.648C451.238 297.304 451.294 296.992 451.406 296.712C451.518 296.432 451.678 296.184 451.886 295.968C452.094 295.752 452.338 295.588 452.618 295.476C452.266 295.308 451.982 295.068 451.766 294.756C451.55 294.444 451.442 294.092 451.442 293.7C451.442 293.308 451.55 292.94 451.766 292.596C451.982 292.252 452.298 291.976 452.714 291.768C453.138 291.56 453.662 291.456 454.286 291.456C454.918 291.456 455.442 291.56 455.858 291.768C456.282 291.976 456.598 292.252 456.806 292.596C457.022 292.94 457.13 293.308 457.13 293.7C457.13 294.084 457.022 294.436 456.806 294.756C456.59 295.068 456.306 295.308 455.954 295.476C456.242 295.596 456.49 295.764 456.698 295.98C456.906 296.188 457.066 296.432 457.178 296.712C457.29 296.992 457.346 297.304 457.346 297.648C457.346 298.144 457.21 298.58 456.938 298.956C456.666 299.332 456.298 299.624 455.834 299.832C455.378 300.04 454.862 300.144 454.286 300.144ZM454.286 298.788C454.774 298.788 455.138 298.668 455.378 298.428C455.626 298.188 455.75 297.884 455.75 297.516C455.75 297.108 455.622 296.788 455.366 296.556C455.11 296.316 454.75 296.196 454.286 296.196C453.83 296.196 453.47 296.316 453.206 296.556C452.942 296.788 452.81 297.108 452.81 297.516C452.81 297.884 452.934 298.188 453.182 298.428C453.438 298.668 453.806 298.788 454.286 298.788ZM454.286 295.008C454.686 295.008 454.994 294.904 455.21 294.696C455.434 294.488 455.546 294.22 455.546 293.892C455.546 293.54 455.434 293.268 455.21 293.076C454.994 292.876 454.686 292.776 454.286 292.776C453.894 292.776 453.59 292.876 453.374 293.076C453.158 293.268 453.05 293.544 453.05 293.904C453.05 294.224 453.158 294.488 453.374 294.696C453.59 294.904 453.894 295.008 454.286 295.008Z" fill="#B0BBD5"/>
<path d="M437.026 41.168V39.884H439.282V37.808H440.59V39.884H442.834V41.168H440.59V43.244H439.282V41.168H437.026ZM443.886 44V42.884C444.398 42.46 444.894 42.04 445.374 41.624C445.862 41.208 446.294 40.796 446.67 40.388C447.054 39.98 447.358 39.584 447.582 39.2C447.814 38.808 447.93 38.428 447.93 38.06C447.93 37.716 447.834 37.412 447.642 37.148C447.458 36.884 447.15 36.752 446.718 36.752C446.278 36.752 445.946 36.896 445.722 37.184C445.498 37.472 445.386 37.82 445.386 38.228H443.898C443.914 37.612 444.05 37.1 444.306 36.692C444.562 36.276 444.902 35.968 445.326 35.768C445.75 35.56 446.226 35.456 446.754 35.456C447.61 35.456 448.274 35.692 448.746 36.164C449.226 36.628 449.466 37.232 449.466 37.976C449.466 38.44 449.358 38.892 449.142 39.332C448.934 39.772 448.658 40.196 448.314 40.604C447.97 41.012 447.598 41.396 447.198 41.756C446.798 42.108 446.41 42.436 446.034 42.74H449.67V44H443.886ZM451.33 44.084C451.05 44.084 450.818 43.996 450.634 43.82C450.458 43.644 450.37 43.432 450.37 43.184C450.37 42.928 450.458 42.712 450.634 42.536C450.818 42.36 451.05 42.272 451.33 42.272C451.61 42.272 451.838 42.36 452.014 42.536C452.198 42.712 452.29 42.928 452.29 43.184C452.29 43.432 452.198 43.644 452.014 43.82C451.838 43.996 451.61 44.084 451.33 44.084ZM457.188 44V42.44H453.048V41.216L456.984 35.6H458.724V41.108H459.828V42.44H458.724V44H457.188ZM454.692 41.108H457.284V37.292L454.692 41.108ZM463.808 44.144C463.192 44.144 462.66 44.036 462.212 43.82C461.772 43.604 461.424 43.308 461.168 42.932C460.92 42.548 460.776 42.116 460.736 41.636H462.236C462.308 41.98 462.484 42.268 462.764 42.5C463.044 42.724 463.392 42.836 463.808 42.836C464.256 42.836 464.62 42.672 464.9 42.344C465.188 42.016 465.332 41.608 465.332 41.12C465.332 40.616 465.188 40.216 464.9 39.92C464.62 39.624 464.264 39.476 463.832 39.476C463.472 39.476 463.16 39.564 462.896 39.74C462.632 39.916 462.444 40.136 462.332 40.4H460.856L461.576 35.6H466.232V36.944H462.728L462.344 38.888C462.52 38.696 462.76 38.54 463.064 38.42C463.368 38.292 463.708 38.228 464.084 38.228C464.684 38.228 465.184 38.364 465.584 38.636C465.984 38.9 466.288 39.252 466.496 39.692C466.704 40.124 466.808 40.596 466.808 41.108C466.808 41.692 466.68 42.212 466.424 42.668C466.176 43.124 465.824 43.484 465.368 43.748C464.92 44.012 464.4 44.144 463.808 44.144ZM469.725 39.728C469.341 39.728 468.993 39.644 468.681 39.476C468.369 39.3 468.121 39.052 467.937 38.732C467.753 38.412 467.661 38.032 467.661 37.592C467.661 37.152 467.753 36.772 467.937 36.452C468.121 36.132 468.369 35.888 468.681 35.72C468.993 35.544 469.345 35.456 469.737 35.456C470.121 35.456 470.465 35.544 470.769 35.72C471.081 35.888 471.329 36.132 471.513 36.452C471.697 36.772 471.789 37.152 471.789 37.592C471.789 38.032 471.697 38.412 471.513 38.732C471.329 39.052 471.081 39.3 470.769 39.476C470.457 39.644 470.109 39.728 469.725 39.728ZM469.269 44L474.009 35.6H475.509L470.769 44H469.269ZM469.725 38.66C469.957 38.66 470.157 38.572 470.325 38.396C470.493 38.212 470.577 37.944 470.577 37.592C470.577 37.24 470.493 36.972 470.325 36.788C470.165 36.604 469.965 36.512 469.725 36.512C469.485 36.512 469.281 36.604 469.113 36.788C468.953 36.972 468.873 37.24 468.873 37.592C468.873 37.944 468.953 38.212 469.113 38.396C469.281 38.572 469.485 38.66 469.725 38.66ZM475.101 44.144C474.717 44.144 474.369 44.06 474.057 43.892C473.745 43.716 473.497 43.468 473.313 43.148C473.129 42.828 473.037 42.448 473.037 42.008C473.037 41.568 473.129 41.192 473.313 40.88C473.497 40.56 473.745 40.316 474.057 40.148C474.369 39.972 474.721 39.884 475.113 39.884C475.497 39.884 475.841 39.972 476.145 40.148C476.457 40.316 476.705 40.56 476.889 40.88C477.073 41.192 477.165 41.568 477.165 42.008C477.165 42.448 477.073 42.828 476.889 43.148C476.705 43.468 476.457 43.716 476.145 43.892C475.841 44.06 475.493 44.144 475.101 44.144ZM475.101 43.076C475.341 43.076 475.541 42.988 475.701 42.812C475.869 42.628 475.953 42.36 475.953 42.008C475.953 41.656 475.869 41.388 475.701 41.204C475.541 41.02 475.341 40.928 475.101 40.928C474.861 40.928 474.657 41.02 474.489 41.204C474.329 41.388 474.249 41.656 474.249 42.008C474.249 42.36 474.329 42.628 474.489 42.812C474.657 42.988 474.861 43.076 475.101 43.076Z" fill="#05CD99"/>
<g clip-path="url(#clip0_3056_3931)">
<path d="M423.25 41.5L427 37.75L430.75 41.5H423.25Z" fill="#05CD99"/>
</g>
<path d="M444.73 270L444.73 238.793C444.73 233.824 448.759 229.796 453.728 229.796C458.697 229.796 462.725 233.824 462.725 238.793L462.725 270L444.73 270Z" fill="url(#paint0_linear_3056_3931)"/>
<path d="M376.606 270L376.606 125.997C376.606 121.028 380.635 117 385.604 117C390.573 117 394.601 121.028 394.601 125.997L394.601 270L376.606 270Z" fill="url(#paint1_linear_3056_3931)"/>
<path d="M309.769 270L309.769 162.851C309.769 157.882 313.797 153.854 318.766 153.854C323.735 153.854 327.763 157.882 327.763 162.851L327.763 270L309.769 270Z" fill="url(#paint2_linear_3056_3931)"/>
<path d="M241.646 270L241.645 191.888C241.645 186.919 245.674 182.891 250.643 182.891C255.612 182.891 259.64 186.919 259.64 191.888L259.64 270L241.646 270Z" fill="url(#paint3_linear_3056_3931)"/>
<path d="M173.521 270L173.521 140.516C173.521 135.547 177.55 131.518 182.519 131.518C187.488 131.518 191.516 135.547 191.516 140.516L191.516 270L173.521 270Z" fill="url(#paint4_linear_3056_3931)"/>
<path d="M106.684 270L106.684 208.64C106.684 203.671 110.712 199.642 115.681 199.642C120.65 199.642 124.678 203.671 124.678 208.64L124.678 270L106.684 270Z" fill="url(#paint5_linear_3056_3931)"/>
<path d="M38.5605 270L38.5605 179.603C38.5605 174.634 42.5888 170.606 47.558 170.606C52.5271 170.606 56.5554 174.634 56.5554 179.603L56.5554 270L38.5605 270Z" fill="url(#paint6_linear_3056_3931)"/>
<path d="M27.7275 32.0469V42H26.0117V32.0469H27.7275ZM31.7881 36.4014V37.7617H27.29V36.4014H31.7881ZM32.3555 32.0469V33.4141H27.29V32.0469H32.3555ZM36.3889 42.1367C35.8421 42.1367 35.3476 42.0479 34.9055 41.8701C34.468 41.6878 34.0943 41.4349 33.7845 41.1113C33.4791 40.7878 33.2444 40.4072 33.0804 39.9697C32.9163 39.5322 32.8343 39.0605 32.8343 38.5547V38.2812C32.8343 37.7025 32.9186 37.1784 33.0872 36.709C33.2558 36.2396 33.4905 35.8385 33.7913 35.5059C34.0921 35.1686 34.4475 34.9111 34.8577 34.7334C35.2679 34.5557 35.7122 34.4668 36.1907 34.4668C36.7193 34.4668 37.1819 34.5557 37.5784 34.7334C37.9749 34.9111 38.303 35.1618 38.5628 35.4854C38.8271 35.8044 39.0231 36.1849 39.1507 36.627C39.2828 37.069 39.3489 37.5566 39.3489 38.0898V38.7939H33.6341V37.6113H37.722V37.4814C37.7128 37.1852 37.6536 36.9072 37.5442 36.6475C37.4394 36.3877 37.2776 36.1781 37.0589 36.0186C36.8401 35.859 36.5485 35.7793 36.1839 35.7793C35.9104 35.7793 35.6666 35.8385 35.4524 35.957C35.2428 36.071 35.0673 36.2373 34.9261 36.4561C34.7848 36.6748 34.6754 36.9391 34.5979 37.249C34.525 37.5544 34.4886 37.8984 34.4886 38.2812V38.5547C34.4886 38.8783 34.5318 39.179 34.6184 39.457C34.7096 39.7305 34.8417 39.9697 35.0149 40.1748C35.1881 40.3799 35.3977 40.5417 35.6438 40.6602C35.8899 40.7741 36.1702 40.8311 36.4846 40.8311C36.8811 40.8311 37.2343 40.7513 37.5442 40.5918C37.8541 40.4323 38.123 40.2067 38.3509 39.915L39.219 40.7559C39.0595 40.9883 38.8522 41.2116 38.597 41.4258C38.3417 41.6354 38.0296 41.8063 37.6604 41.9385C37.2958 42.0706 36.872 42.1367 36.3889 42.1367ZM43.6148 42.1367C43.0679 42.1367 42.5735 42.0479 42.1314 41.8701C41.6939 41.6878 41.3202 41.4349 41.0103 41.1113C40.705 40.7878 40.4703 40.4072 40.3062 39.9697C40.1421 39.5322 40.0601 39.0605 40.0601 38.5547V38.2812C40.0601 37.7025 40.1444 37.1784 40.313 36.709C40.4817 36.2396 40.7164 35.8385 41.0171 35.5059C41.3179 35.1686 41.6734 34.9111 42.0836 34.7334C42.4937 34.5557 42.938 34.4668 43.4166 34.4668C43.9452 34.4668 44.4078 34.5557 44.8043 34.7334C45.2007 34.9111 45.5289 35.1618 45.7886 35.4854C46.053 35.8044 46.2489 36.1849 46.3765 36.627C46.5087 37.069 46.5748 37.5566 46.5748 38.0898V38.7939H40.8599V37.6113H44.9478V37.4814C44.9387 37.1852 44.8795 36.9072 44.7701 36.6475C44.6653 36.3877 44.5035 36.1781 44.2847 36.0186C44.066 35.859 43.7743 35.7793 43.4097 35.7793C43.1363 35.7793 42.8925 35.8385 42.6783 35.957C42.4686 36.071 42.2932 36.2373 42.1519 36.4561C42.0106 36.6748 41.9013 36.9391 41.8238 37.249C41.7509 37.5544 41.7144 37.8984 41.7144 38.2812V38.5547C41.7144 38.8783 41.7577 39.179 41.8443 39.457C41.9354 39.7305 42.0676 39.9697 42.2408 40.1748C42.414 40.3799 42.6236 40.5417 42.8697 40.6602C43.1158 40.7741 43.3961 40.8311 43.7105 40.8311C44.107 40.8311 44.4602 40.7513 44.7701 40.5918C45.08 40.4323 45.3489 40.2067 45.5767 39.915L46.4449 40.7559C46.2854 40.9883 46.078 41.2116 45.8228 41.4258C45.5676 41.6354 45.2554 41.8063 44.8863 41.9385C44.5217 42.0706 44.0979 42.1367 43.6148 42.1367ZM56.8292 38.7598H58.5382C58.4835 39.4115 58.3012 39.9925 57.9913 40.5029C57.6814 41.0088 57.2462 41.4076 56.6857 41.6992C56.1251 41.9909 55.4438 42.1367 54.6417 42.1367C54.0265 42.1367 53.4728 42.0273 52.9806 41.8086C52.4884 41.5853 52.0668 41.2708 51.7159 40.8652C51.365 40.4551 51.0961 39.9606 50.9093 39.3818C50.727 38.8031 50.6359 38.1559 50.6359 37.4404V36.6133C50.6359 35.8978 50.7293 35.2507 50.9161 34.6719C51.1075 34.0931 51.381 33.5986 51.7364 33.1885C52.0919 32.7738 52.518 32.457 53.0148 32.2383C53.5161 32.0195 54.0789 31.9102 54.7032 31.9102C55.4962 31.9102 56.1661 32.056 56.713 32.3477C57.2599 32.6393 57.6837 33.0426 57.9845 33.5576C58.2898 34.0726 58.4767 34.6628 58.545 35.3281H56.8361C56.7905 34.8997 56.6902 34.5329 56.5353 34.2275C56.3849 33.9222 56.1616 33.6898 55.8654 33.5303C55.5691 33.3662 55.1818 33.2842 54.7032 33.2842C54.3113 33.2842 53.9695 33.3571 53.6779 33.5029C53.3862 33.6488 53.1424 33.863 52.9464 34.1455C52.7504 34.4281 52.6023 34.7767 52.5021 35.1914C52.4064 35.6016 52.3585 36.071 52.3585 36.5996V37.4404C52.3585 37.9417 52.4018 38.3975 52.4884 38.8076C52.5795 39.2132 52.7163 39.5618 52.8986 39.8535C53.0854 40.1452 53.3224 40.3708 53.6095 40.5303C53.8966 40.6898 54.2407 40.7695 54.6417 40.7695C55.1293 40.7695 55.5236 40.6921 55.8243 40.5371C56.1297 40.3822 56.3598 40.1566 56.5148 39.8604C56.6743 39.5596 56.7791 39.1927 56.8292 38.7598ZM59.3383 38.3838V38.2266C59.3383 37.6934 59.4158 37.1989 59.5707 36.7432C59.7256 36.2829 59.949 35.8841 60.2406 35.5469C60.5368 35.2051 60.8969 34.9408 61.3207 34.7539C61.7491 34.5625 62.2322 34.4668 62.7699 34.4668C63.3122 34.4668 63.7953 34.5625 64.2191 34.7539C64.6475 34.9408 65.0098 35.2051 65.3061 35.5469C65.6023 35.8841 65.8279 36.2829 65.9828 36.7432C66.1378 37.1989 66.2152 37.6934 66.2152 38.2266V38.3838C66.2152 38.917 66.1378 39.4115 65.9828 39.8672C65.8279 40.3229 65.6023 40.7217 65.3061 41.0635C65.0098 41.4007 64.6498 41.665 64.226 41.8564C63.8021 42.0433 63.3214 42.1367 62.7836 42.1367C62.2413 42.1367 61.7559 42.0433 61.3275 41.8564C60.9037 41.665 60.5437 41.4007 60.2475 41.0635C59.9512 40.7217 59.7256 40.3229 59.5707 39.8672C59.4158 39.4115 59.3383 38.917 59.3383 38.3838ZM60.9857 38.2266V38.3838C60.9857 38.7165 61.0199 39.0309 61.0883 39.3271C61.1566 39.6234 61.2637 39.8831 61.4096 40.1064C61.5554 40.3298 61.7423 40.5052 61.9701 40.6328C62.198 40.7604 62.4691 40.8242 62.7836 40.8242C63.0889 40.8242 63.3533 40.7604 63.5766 40.6328C63.8044 40.5052 63.9913 40.3298 64.1371 40.1064C64.2829 39.8831 64.39 39.6234 64.4584 39.3271C64.5313 39.0309 64.5678 38.7165 64.5678 38.3838V38.2266C64.5678 37.8984 64.5313 37.5885 64.4584 37.2969C64.39 37.0007 64.2807 36.7386 64.1303 36.5107C63.9844 36.2829 63.7976 36.1051 63.5697 35.9775C63.3464 35.8454 63.0798 35.7793 62.7699 35.7793C62.46 35.7793 62.1911 35.8454 61.9633 35.9775C61.74 36.1051 61.5554 36.2829 61.4096 36.5107C61.2637 36.7386 61.1566 37.0007 61.0883 37.2969C61.0199 37.5885 60.9857 37.8984 60.9857 38.2266ZM69.0798 31.5V42H67.4255V31.5H69.0798ZM72.3681 31.5V42H70.7138V31.5H72.3681ZM77.1536 42.1367C76.6067 42.1367 76.1122 42.0479 75.6702 41.8701C75.2327 41.6878 74.859 41.4349 74.5491 41.1113C74.2437 40.7878 74.009 40.4072 73.845 39.9697C73.6809 39.5322 73.5989 39.0605 73.5989 38.5547V38.2812C73.5989 37.7025 73.6832 37.1784 73.8518 36.709C74.0204 36.2396 74.2551 35.8385 74.5559 35.5059C74.8567 35.1686 75.2121 34.9111 75.6223 34.7334C76.0325 34.5557 76.4768 34.4668 76.9553 34.4668C77.484 34.4668 77.9465 34.5557 78.343 34.7334C78.7395 34.9111 79.0676 35.1618 79.3274 35.4854C79.5917 35.8044 79.7877 36.1849 79.9153 36.627C80.0474 37.069 80.1135 37.5566 80.1135 38.0898V38.7939H74.3987V37.6113H78.4866V37.4814C78.4774 37.1852 78.4182 36.9072 78.3088 36.6475C78.204 36.3877 78.0422 36.1781 77.8235 36.0186C77.6047 35.859 77.3131 35.7793 76.9485 35.7793C76.675 35.7793 76.4312 35.8385 76.217 35.957C76.0074 36.071 75.8319 36.2373 75.6907 36.4561C75.5494 36.6748 75.44 36.9391 75.3625 37.249C75.2896 37.5544 75.2532 37.8984 75.2532 38.2812V38.5547C75.2532 38.8783 75.2965 39.179 75.383 39.457C75.4742 39.7305 75.6064 39.9697 75.7795 40.1748C75.9527 40.3799 76.1623 40.5417 76.4084 40.6602C76.6545 40.7741 76.9348 40.8311 77.2493 40.8311C77.6457 40.8311 77.9989 40.7513 78.3088 40.5918C78.6187 40.4323 78.8876 40.2067 79.1155 39.915L79.9836 40.7559C79.8241 40.9883 79.6168 41.2116 79.3616 41.4258C79.1064 41.6354 78.7942 41.8063 78.425 41.9385C78.0605 42.0706 77.6366 42.1367 77.1536 42.1367ZM84.1402 40.8242C84.409 40.8242 84.6506 40.7718 84.8648 40.667C85.0835 40.5576 85.259 40.4072 85.3911 40.2158C85.5279 40.0244 85.603 39.8034 85.6167 39.5527H87.1685C87.1594 40.0312 87.0181 40.4665 86.7446 40.8584C86.4712 41.2503 86.1089 41.5625 85.6577 41.7949C85.2066 42.0228 84.7075 42.1367 84.1607 42.1367C83.5956 42.1367 83.1034 42.041 82.6841 41.8496C82.2648 41.6536 81.9162 41.3848 81.6382 41.043C81.3602 40.7012 81.1506 40.307 81.0093 39.8604C80.8726 39.4137 80.8042 38.9352 80.8042 38.4248V38.1855C80.8042 37.6751 80.8726 37.1966 81.0093 36.75C81.1506 36.2988 81.3602 35.9023 81.6382 35.5605C81.9162 35.2188 82.2648 34.9521 82.6841 34.7607C83.1034 34.5648 83.5933 34.4668 84.1538 34.4668C84.7463 34.4668 85.2658 34.5853 85.7124 34.8223C86.159 35.0547 86.5099 35.3805 86.7652 35.7998C87.0249 36.2145 87.1594 36.6976 87.1685 37.249H85.6167C85.603 36.9756 85.5347 36.7295 85.4116 36.5107C85.2932 36.2874 85.1245 36.1097 84.9058 35.9775C84.6916 35.8454 84.4341 35.7793 84.1333 35.7793C83.8006 35.7793 83.5249 35.8477 83.3062 35.9844C83.0874 36.1165 82.9165 36.2988 82.7935 36.5312C82.6704 36.7591 82.5816 37.0166 82.5269 37.3037C82.4767 37.5863 82.4517 37.8802 82.4517 38.1855V38.4248C82.4517 38.7301 82.4767 39.0264 82.5269 39.3135C82.577 39.6006 82.6636 39.8581 82.7866 40.0859C82.9142 40.3092 83.0874 40.4893 83.3062 40.626C83.5249 40.7581 83.8029 40.8242 84.1402 40.8242ZM91.5438 34.6035V35.8066H87.3738V34.6035H91.5438ZM88.577 32.792H90.2244V39.9561C90.2244 40.1839 90.2563 40.3594 90.3201 40.4824C90.3885 40.6009 90.4819 40.6807 90.6004 40.7217C90.7189 40.7627 90.8579 40.7832 91.0174 40.7832C91.1313 40.7832 91.2407 40.7764 91.3455 40.7627C91.4503 40.749 91.5346 40.7354 91.5984 40.7217L91.6053 41.9795C91.4686 42.0205 91.3091 42.057 91.1268 42.0889C90.949 42.1208 90.7439 42.1367 90.5115 42.1367C90.1333 42.1367 89.7983 42.0706 89.5066 41.9385C89.215 41.8018 88.9871 41.5807 88.823 41.2754C88.659 40.9701 88.577 40.5645 88.577 40.0586V32.792ZM94.2989 34.6035V42H92.6446V34.6035H94.2989ZM92.5352 32.6621C92.5352 32.4115 92.6173 32.2041 92.7813 32.04C92.9499 31.8714 93.1824 31.7871 93.4786 31.7871C93.7703 31.7871 94.0004 31.8714 94.169 32.04C94.3376 32.2041 94.422 32.4115 94.422 32.6621C94.422 32.9082 94.3376 33.1133 94.169 33.2773C94.0004 33.4414 93.7703 33.5234 93.4786 33.5234C93.1824 33.5234 92.9499 33.4414 92.7813 33.2773C92.6173 33.1133 92.5352 32.9082 92.5352 32.6621ZM95.5091 38.3838V38.2266C95.5091 37.6934 95.5866 37.1989 95.7416 36.7432C95.8965 36.2829 96.1198 35.8841 96.4115 35.5469C96.7077 35.2051 97.0677 34.9408 97.4916 34.7539C97.9199 34.5625 98.403 34.4668 98.9408 34.4668C99.4831 34.4668 99.9662 34.5625 100.39 34.7539C100.818 34.9408 101.181 35.2051 101.477 35.5469C101.773 35.8841 101.999 36.2829 102.154 36.7432C102.309 37.1989 102.386 37.6934 102.386 38.2266V38.3838C102.386 38.917 102.309 39.4115 102.154 39.8672C101.999 40.3229 101.773 40.7217 101.477 41.0635C101.181 41.4007 100.821 41.665 100.397 41.8564C99.973 42.0433 99.4922 42.1367 98.9545 42.1367C98.4121 42.1367 97.9268 42.0433 97.4984 41.8564C97.0746 41.665 96.7145 41.4007 96.4183 41.0635C96.1221 40.7217 95.8965 40.3229 95.7416 39.8672C95.5866 39.4115 95.5091 38.917 95.5091 38.3838ZM97.1566 38.2266V38.3838C97.1566 38.7165 97.1908 39.0309 97.2591 39.3271C97.3275 39.6234 97.4346 39.8831 97.5804 40.1064C97.7263 40.3298 97.9131 40.5052 98.141 40.6328C98.3688 40.7604 98.64 40.8242 98.9545 40.8242C99.2598 40.8242 99.5241 40.7604 99.7474 40.6328C99.9753 40.5052 100.162 40.3298 100.308 40.1064C100.454 39.8831 100.561 39.6234 100.629 39.3271C100.702 39.0309 100.739 38.7165 100.739 38.3838V38.2266C100.739 37.8984 100.702 37.5885 100.629 37.2969C100.561 37.0007 100.452 36.7386 100.301 36.5107C100.155 36.2829 99.9684 36.1051 99.7406 35.9775C99.5173 35.8454 99.2507 35.7793 98.9408 35.7793C98.6309 35.7793 98.362 35.8454 98.1341 35.9775C97.9108 36.1051 97.7263 36.2829 97.5804 36.5107C97.4346 36.7386 97.3275 37.0007 97.2591 37.2969C97.1908 37.5885 97.1566 37.8984 97.1566 38.2266ZM105.121 36.1826V42H103.473V34.6035H105.025L105.121 36.1826ZM104.827 38.0283L104.294 38.0215C104.298 37.4974 104.371 37.0166 104.512 36.5791C104.658 36.1416 104.859 35.7656 105.114 35.4512C105.374 35.1367 105.684 34.8952 106.044 34.7266C106.404 34.5534 106.805 34.4668 107.247 34.4668C107.602 34.4668 107.923 34.5169 108.211 34.6172C108.502 34.7129 108.751 34.8701 108.956 35.0889C109.165 35.3076 109.325 35.5924 109.434 35.9434C109.544 36.2897 109.598 36.7158 109.598 37.2217V42H107.944V37.2148C107.944 36.8594 107.892 36.5791 107.787 36.374C107.686 36.1644 107.538 36.0163 107.342 35.9297C107.151 35.8385 106.912 35.793 106.625 35.793C106.342 35.793 106.089 35.8522 105.866 35.9707C105.643 36.0892 105.453 36.251 105.298 36.4561C105.148 36.6611 105.032 36.8981 104.95 37.167C104.868 37.4359 104.827 37.723 104.827 38.0283Z" fill="#A3AED0"/>
<path d="M42.1826 64.8877L41.3359 68.1084H25.6807L26.5439 64.8877H42.1826ZM34.1641 83L26.1621 73.5205L26.1455 70.6816H30.0469C30.9544 70.6816 31.7015 70.5046 32.2881 70.1504C32.8747 69.7962 33.3118 69.3203 33.5996 68.7227C33.8874 68.1139 34.0312 67.4388 34.0312 66.6973C34.0312 65.9225 33.8984 65.2363 33.6328 64.6387C33.3672 64.041 32.9411 63.5762 32.3545 63.2441C31.7679 62.901 30.9876 62.7295 30.0137 62.7295H25.6973L26.6768 58.8281H30.0137C32.0059 58.8281 33.666 59.127 34.9941 59.7246C36.3223 60.3223 37.3184 61.1855 37.9824 62.3145C38.6465 63.4323 38.9785 64.7881 38.9785 66.3818C38.9785 67.7764 38.7572 68.9993 38.3145 70.0508C37.8717 71.1022 37.1689 71.971 36.2061 72.6572C35.2432 73.3324 33.9759 73.8083 32.4043 74.085L39.6094 82.7676V83H34.1641ZM42.2158 58.8281L41.3525 62.0322H28.3867L29.25 58.8281H42.2158ZM60.4118 79.2646V83H43.8766V79.8125L51.696 71.4287C52.4818 70.5544 53.1016 69.7852 53.5554 69.1211C54.0091 68.446 54.3356 67.8428 54.5348 67.3115C54.7451 66.7692 54.8503 66.2546 54.8503 65.7676C54.8503 65.0371 54.7285 64.4118 54.485 63.8916C54.2415 63.3604 53.8818 62.9508 53.4059 62.6631C52.9411 62.3753 52.3656 62.2314 51.6794 62.2314C50.9489 62.2314 50.318 62.4085 49.7868 62.7627C49.2666 63.1169 48.8682 63.6094 48.5915 64.2402C48.3259 64.8711 48.193 65.585 48.193 66.3818H43.3952C43.3952 64.943 43.7383 63.626 44.4245 62.4307C45.1107 61.2243 46.0791 60.2669 47.3298 59.5586C48.5804 58.8392 50.0635 58.4795 51.779 58.4795C53.4723 58.4795 54.9001 58.7562 56.0622 59.3096C57.2354 59.8519 58.1208 60.6377 58.7184 61.667C59.3272 62.6852 59.6315 63.9027 59.6315 65.3193C59.6315 66.1162 59.5042 66.8965 59.2497 67.6602C58.9951 68.4128 58.6299 69.1654 58.154 69.918C57.6891 70.6595 57.1247 71.4121 56.4606 72.1758C55.7966 72.9395 55.0606 73.7308 54.2526 74.5498L50.0524 79.2646H60.4118ZM67.4515 78.9658L67.4349 82.1699C67.4349 83.3984 67.125 84.638 66.5052 85.8887C65.8965 87.1393 65.1218 88.1631 64.181 88.96L61.6908 87.6816C61.9675 87.1725 62.2386 86.6634 62.5043 86.1543C62.7699 85.6452 62.9912 85.0863 63.1683 84.4775C63.3454 83.8688 63.4339 83.1771 63.4339 82.4023V78.9658H67.4515ZM74.9063 71.9932L71.0879 71.0801L72.4659 58.8281H86.0459V62.6963H76.4004L75.8028 68.0586C76.1237 67.8704 76.6107 67.6712 77.2637 67.4609C77.9167 67.2396 78.6472 67.1289 79.4551 67.1289C80.6283 67.1289 81.6687 67.3115 82.5762 67.6768C83.4838 68.042 84.253 68.5732 84.8838 69.2705C85.5258 69.9678 86.0127 70.82 86.3448 71.8271C86.6768 72.8343 86.8428 73.9743 86.8428 75.2471C86.8428 76.3206 86.6768 77.3444 86.3448 78.3184C86.0127 79.2812 85.5092 80.1445 84.834 80.9082C84.1589 81.6608 83.3122 82.2529 82.294 82.6846C81.2758 83.1162 80.0694 83.332 78.6748 83.332C77.6345 83.332 76.6273 83.1771 75.6534 82.8672C74.6905 82.5573 73.8217 82.098 73.0469 81.4893C72.2832 80.8805 71.669 80.1445 71.2041 79.2812C70.7504 78.4069 70.5124 77.4108 70.4903 76.293H75.2383C75.3047 76.9792 75.4818 77.5713 75.7696 78.0693C76.0684 78.5563 76.4613 78.9326 76.9483 79.1982C77.4353 79.4639 78.0052 79.5967 78.6582 79.5967C79.267 79.5967 79.7871 79.4805 80.2188 79.248C80.6504 79.0156 80.9991 78.6947 81.2647 78.2852C81.5303 77.8646 81.724 77.3776 81.8457 76.8242C81.9786 76.2598 82.045 75.651 82.045 74.998C82.045 74.3451 81.9675 73.7529 81.8125 73.2217C81.6576 72.6904 81.4196 72.2311 81.0987 71.8438C80.7777 71.4564 80.3682 71.1576 79.8702 70.9473C79.3832 70.737 78.8132 70.6318 78.1602 70.6318C77.2748 70.6318 76.5886 70.7702 76.1016 71.0469C75.6257 71.3236 75.2273 71.639 74.9063 71.9932ZM105.67 58.8281V61.4014L96.323 83H91.2761L100.623 62.5635H88.5866V58.8281H105.67ZM112.826 78.9658L112.809 82.1699C112.809 83.3984 112.499 84.638 111.879 85.8887C111.271 87.1393 110.496 88.1631 109.555 88.96L107.065 87.6816C107.342 87.1725 107.613 86.6634 107.878 86.1543C108.144 85.6452 108.365 85.0863 108.542 84.4775C108.719 83.8688 108.808 83.1771 108.808 82.4023V78.9658H112.826ZM119.168 79.3643H119.483C120.812 79.3643 121.952 79.2038 122.903 78.8828C123.866 78.5508 124.658 78.0749 125.277 77.4551C125.897 76.8353 126.357 76.0771 126.655 75.1807C126.954 74.2731 127.104 73.2438 127.104 72.0928V67.5107C127.104 66.6364 127.015 65.8672 126.838 65.2031C126.672 64.5391 126.428 63.9912 126.107 63.5596C125.798 63.1169 125.432 62.7848 125.012 62.5635C124.602 62.3421 124.149 62.2314 123.65 62.2314C123.119 62.2314 122.649 62.3643 122.239 62.6299C121.83 62.8844 121.481 63.2331 121.193 63.6758C120.917 64.1185 120.701 64.6276 120.546 65.2031C120.402 65.7676 120.33 66.3597 120.33 66.9795C120.33 67.5993 120.402 68.1914 120.546 68.7559C120.69 69.3092 120.906 69.8018 121.193 70.2334C121.481 70.654 121.841 70.9915 122.273 71.2461C122.704 71.4896 123.213 71.6113 123.8 71.6113C124.364 71.6113 124.868 71.5062 125.311 71.2959C125.764 71.0745 126.146 70.7868 126.456 70.4326C126.777 70.0785 127.021 69.6855 127.187 69.2539C127.364 68.8223 127.452 68.3851 127.452 67.9424L129.029 68.8057C129.029 69.5804 128.863 70.3441 128.531 71.0967C128.199 71.8493 127.734 72.5355 127.137 73.1553C126.55 73.764 125.87 74.251 125.095 74.6162C124.32 74.9814 123.49 75.1641 122.605 75.1641C121.476 75.1641 120.474 74.9593 119.6 74.5498C118.725 74.1292 117.984 73.5537 117.375 72.8232C116.777 72.0817 116.324 71.2184 116.014 70.2334C115.704 69.2484 115.549 68.1803 115.549 67.0293C115.549 65.8561 115.737 64.7549 116.113 63.7256C116.501 62.6963 117.049 61.7887 117.757 61.0029C118.476 60.2171 119.334 59.6029 120.33 59.1602C121.337 58.7064 122.455 58.4795 123.684 58.4795C124.912 58.4795 126.03 58.7174 127.037 59.1934C128.044 59.6693 128.908 60.3444 129.627 61.2188C130.346 62.082 130.9 63.1169 131.287 64.3232C131.686 65.5296 131.885 66.8688 131.885 68.3408V70.001C131.885 71.5726 131.713 73.0335 131.37 74.3838C131.038 75.734 130.535 76.957 129.859 78.0527C129.195 79.1374 128.365 80.0671 127.369 80.8418C126.384 81.6165 125.239 82.2087 123.933 82.6182C122.627 83.0277 121.166 83.2324 119.55 83.2324H119.168V79.3643ZM138.011 79.3643H138.327C139.655 79.3643 140.795 79.2038 141.747 78.8828C142.71 78.5508 143.501 78.0749 144.121 77.4551C144.741 76.8353 145.2 76.0771 145.499 75.1807C145.798 74.2731 145.947 73.2438 145.947 72.0928V67.5107C145.947 66.6364 145.858 65.8672 145.681 65.2031C145.515 64.5391 145.272 63.9912 144.951 63.5596C144.641 63.1169 144.276 62.7848 143.855 62.5635C143.446 62.3421 142.992 62.2314 142.494 62.2314C141.963 62.2314 141.492 62.3643 141.083 62.6299C140.673 62.8844 140.325 63.2331 140.037 63.6758C139.76 64.1185 139.544 64.6276 139.389 65.2031C139.246 65.7676 139.174 66.3597 139.174 66.9795C139.174 67.5993 139.246 68.1914 139.389 68.7559C139.533 69.3092 139.749 69.8018 140.037 70.2334C140.325 70.654 140.684 70.9915 141.116 71.2461C141.548 71.4896 142.057 71.6113 142.643 71.6113C143.208 71.6113 143.711 71.5062 144.154 71.2959C144.608 71.0745 144.99 70.7868 145.3 70.4326C145.621 70.0785 145.864 69.6855 146.03 69.2539C146.207 68.8223 146.296 68.3851 146.296 67.9424L147.873 68.8057C147.873 69.5804 147.707 70.3441 147.375 71.0967C147.043 71.8493 146.578 72.5355 145.98 73.1553C145.394 73.764 144.713 74.251 143.938 74.6162C143.164 74.9814 142.333 75.1641 141.448 75.1641C140.319 75.1641 139.317 74.9593 138.443 74.5498C137.569 74.1292 136.827 73.5537 136.219 72.8232C135.621 72.0817 135.167 71.2184 134.857 70.2334C134.547 69.2484 134.392 68.1803 134.392 67.0293C134.392 65.8561 134.58 64.7549 134.957 63.7256C135.344 62.6963 135.892 61.7887 136.6 61.0029C137.32 60.2171 138.177 59.6029 139.174 59.1602C140.181 58.7064 141.299 58.4795 142.527 58.4795C143.756 58.4795 144.873 58.7174 145.881 59.1934C146.888 59.6693 147.751 60.3444 148.47 61.2188C149.19 62.082 149.743 63.1169 150.131 64.3232C150.529 65.5296 150.728 66.8688 150.728 68.3408V70.001C150.728 71.5726 150.557 73.0335 150.214 74.3838C149.882 75.734 149.378 76.957 148.703 78.0527C148.039 79.1374 147.209 80.0671 146.213 80.8418C145.228 81.6165 144.082 82.2087 142.776 82.6182C141.47 83.0277 140.009 83.2324 138.393 83.2324H138.011V79.3643ZM169.738 68.7891V72.9727C169.738 74.7878 169.544 76.3538 169.157 77.6709C168.769 78.9769 168.21 80.0505 167.48 80.8916C166.761 81.7217 165.903 82.3359 164.907 82.7344C163.911 83.1328 162.804 83.332 161.586 83.332C160.612 83.332 159.705 83.2103 158.864 82.9668C158.023 82.7122 157.264 82.3193 156.589 81.7881C155.925 81.2568 155.35 80.5872 154.863 79.7793C154.387 78.9603 154.022 77.9863 153.767 76.8574C153.512 75.7285 153.385 74.4336 153.385 72.9727V68.7891C153.385 66.974 153.579 65.4189 153.966 64.124C154.365 62.818 154.924 61.75 155.643 60.9199C156.373 60.0898 157.237 59.4811 158.233 59.0938C159.229 58.6953 160.336 58.4961 161.553 58.4961C162.527 58.4961 163.429 58.6234 164.259 58.8779C165.1 59.1214 165.859 59.5033 166.534 60.0234C167.209 60.5436 167.784 61.2132 168.26 62.0322C168.736 62.8402 169.101 63.8086 169.356 64.9375C169.61 66.0553 169.738 67.3392 169.738 68.7891ZM164.94 73.6035V68.1416C164.94 67.2673 164.89 66.5036 164.79 65.8506C164.702 65.1976 164.564 64.6442 164.375 64.1904C164.187 63.7256 163.955 63.3493 163.678 63.0615C163.401 62.7738 163.086 62.5635 162.732 62.4307C162.378 62.2979 161.985 62.2314 161.553 62.2314C161.011 62.2314 160.529 62.3366 160.109 62.5469C159.699 62.7572 159.351 63.0947 159.063 63.5596C158.775 64.0133 158.554 64.6221 158.399 65.3857C158.255 66.1383 158.183 67.057 158.183 68.1416V73.6035C158.183 74.4779 158.227 75.2471 158.316 75.9111C158.415 76.5752 158.559 77.1452 158.747 77.6211C158.947 78.0859 159.179 78.4678 159.445 78.7666C159.721 79.0544 160.037 79.2646 160.391 79.3975C160.756 79.5303 161.155 79.5967 161.586 79.5967C162.118 79.5967 162.588 79.4915 162.997 79.2812C163.418 79.0599 163.772 78.7168 164.06 78.252C164.359 77.776 164.58 77.1562 164.724 76.3926C164.868 75.6289 164.94 74.6992 164.94 73.6035ZM172.743 80.6924C172.743 79.984 172.987 79.3919 173.474 78.916C173.972 78.4401 174.63 78.2021 175.449 78.2021C176.268 78.2021 176.921 78.4401 177.408 78.916C177.906 79.3919 178.155 79.984 178.155 80.6924C178.155 81.4007 177.906 81.9928 177.408 82.4688C176.921 82.9447 176.268 83.1826 175.449 83.1826C174.63 83.1826 173.972 82.9447 173.474 82.4688C172.987 81.9928 172.743 81.4007 172.743 80.6924ZM197.762 68.7891V72.9727C197.762 74.7878 197.569 76.3538 197.181 77.6709C196.794 78.9769 196.235 80.0505 195.505 80.8916C194.785 81.7217 193.928 82.3359 192.931 82.7344C191.935 83.1328 190.829 83.332 189.611 83.332C188.637 83.332 187.73 83.2103 186.888 82.9668C186.047 82.7122 185.289 82.3193 184.614 81.7881C183.95 81.2568 183.374 80.5872 182.887 79.7793C182.412 78.9603 182.046 77.9863 181.792 76.8574C181.537 75.7285 181.41 74.4336 181.41 72.9727V68.7891C181.41 66.974 181.604 65.4189 181.991 64.124C182.389 62.818 182.948 61.75 183.668 60.9199C184.398 60.0898 185.262 59.4811 186.258 59.0938C187.254 58.6953 188.36 58.4961 189.578 58.4961C190.552 58.4961 191.454 58.6234 192.284 58.8779C193.125 59.1214 193.883 59.5033 194.558 60.0234C195.234 60.5436 195.809 61.2132 196.285 62.0322C196.761 62.8402 197.126 63.8086 197.381 64.9375C197.635 66.0553 197.762 67.3392 197.762 68.7891ZM192.965 73.6035V68.1416C192.965 67.2673 192.915 66.5036 192.815 65.8506C192.727 65.1976 192.588 64.6442 192.4 64.1904C192.212 63.7256 191.98 63.3493 191.703 63.0615C191.426 62.7738 191.111 62.5635 190.757 62.4307C190.402 62.2979 190.01 62.2314 189.578 62.2314C189.036 62.2314 188.554 62.3366 188.134 62.5469C187.724 62.7572 187.375 63.0947 187.088 63.5596C186.8 64.0133 186.579 64.6221 186.424 65.3857C186.28 66.1383 186.208 67.057 186.208 68.1416V73.6035C186.208 74.4779 186.252 75.2471 186.341 75.9111C186.44 76.5752 186.584 77.1452 186.772 77.6211C186.971 78.0859 187.204 78.4678 187.47 78.7666C187.746 79.0544 188.062 79.2646 188.416 79.3975C188.781 79.5303 189.179 79.5967 189.611 79.5967C190.142 79.5967 190.613 79.4915 191.022 79.2812C191.443 79.0599 191.797 78.7168 192.085 78.252C192.384 77.776 192.605 77.1562 192.749 76.3926C192.893 75.6289 192.965 74.6992 192.965 73.6035ZM216.606 68.7891V72.9727C216.606 74.7878 216.412 76.3538 216.025 77.6709C215.638 78.9769 215.079 80.0505 214.348 80.8916C213.629 81.7217 212.771 82.3359 211.775 82.7344C210.779 83.1328 209.672 83.332 208.455 83.332C207.481 83.332 206.573 83.2103 205.732 82.9668C204.891 82.7122 204.133 82.3193 203.458 81.7881C202.793 81.2568 202.218 80.5872 201.731 79.7793C201.255 78.9603 200.89 77.9863 200.635 76.8574C200.381 75.7285 200.253 74.4336 200.253 72.9727V68.7891C200.253 66.974 200.447 65.4189 200.834 64.124C201.233 62.818 201.792 61.75 202.511 60.9199C203.242 60.0898 204.105 59.4811 205.101 59.0938C206.097 58.6953 207.204 58.4961 208.421 58.4961C209.395 58.4961 210.297 58.6234 211.127 58.8779C211.969 59.1214 212.727 59.5033 213.402 60.0234C214.077 60.5436 214.652 61.2132 215.128 62.0322C215.604 62.8402 215.97 63.8086 216.224 64.9375C216.479 66.0553 216.606 67.3392 216.606 68.7891ZM211.808 73.6035V68.1416C211.808 67.2673 211.758 66.5036 211.659 65.8506C211.57 65.1976 211.432 64.6442 211.244 64.1904C211.055 63.7256 210.823 63.3493 210.546 63.0615C210.27 62.7738 209.954 62.5635 209.6 62.4307C209.246 62.2979 208.853 62.2314 208.421 62.2314C207.879 62.2314 207.398 62.3366 206.977 62.5469C206.568 62.7572 206.219 63.0947 205.931 63.5596C205.643 64.0133 205.422 64.6221 205.267 65.3857C205.123 66.1383 205.051 67.057 205.051 68.1416V73.6035C205.051 74.4779 205.096 75.2471 205.184 75.9111C205.284 76.5752 205.428 77.1452 205.616 77.6211C205.815 78.0859 206.047 78.4678 206.313 78.7666C206.59 79.0544 206.905 79.2646 207.259 79.3975C207.624 79.5303 208.023 79.5967 208.455 79.5967C208.986 79.5967 209.456 79.4915 209.866 79.2812C210.286 79.0599 210.64 78.7168 210.928 78.252C211.227 77.776 211.448 77.1562 211.592 76.3926C211.736 75.6289 211.808 74.6992 211.808 73.6035Z" fill="#2B3674"/>
<defs>
<linearGradient id="paint0_linear_3056_3931" x1="453.728" y1="232.029" x2="453.728" y2="270" gradientUnits="userSpaceOnUse">
<stop stop-color="#4318FF"/>
<stop offset="1" stop-color="#4318FF" stop-opacity="0.28"/>
</linearGradient>
<linearGradient id="paint1_linear_3056_3931" x1="385.604" y1="125.5" x2="385.604" y2="270" gradientUnits="userSpaceOnUse">
<stop stop-color="#4318FF"/>
<stop offset="1" stop-color="#4318FF" stop-opacity="0.28"/>
</linearGradient>
<linearGradient id="paint2_linear_3056_3931" x1="318.766" y1="160.307" x2="318.766" y2="270" gradientUnits="userSpaceOnUse">
<stop stop-color="#4318FF"/>
<stop offset="1" stop-color="#4318FF" stop-opacity="0.28"/>
</linearGradient>
<linearGradient id="paint3_linear_3056_3931" x1="250.643" y1="187.73" x2="250.643" y2="270" gradientUnits="userSpaceOnUse">
<stop stop-color="#4318FF"/>
<stop offset="1" stop-color="#4318FF" stop-opacity="0.28"/>
</linearGradient>
<linearGradient id="paint4_linear_3056_3931" x1="182.519" y1="139.212" x2="182.519" y2="270" gradientUnits="userSpaceOnUse">
<stop stop-color="#4318FF"/>
<stop offset="1" stop-color="#4318FF" stop-opacity="0.28"/>
</linearGradient>
<linearGradient id="paint5_linear_3056_3931" x1="115.681" y1="203.551" x2="115.681" y2="270" gradientUnits="userSpaceOnUse">
<stop stop-color="#4318FF"/>
<stop offset="1" stop-color="#4318FF" stop-opacity="0.28"/>
</linearGradient>
<linearGradient id="paint6_linear_3056_3931" x1="47.5577" y1="176.128" x2="47.5577" y2="270" gradientUnits="userSpaceOnUse">
<stop stop-color="#4318FF"/>
<stop offset="1" stop-color="#4318FF" stop-opacity="0.28"/>
</linearGradient>
<clipPath id="clip0_3056_3931">
<rect width="18" height="18" fill="white" transform="translate(418 31)"/>
</clipPath>
</defs>
</svg>
